<svg width="25" height="25" viewBox="0 0 25 25" fill="none" xmlns="http://www.w3.org/2000/svg">
<path d="M4.88488 6.90525C6.00066 6.90525 6.90519 6.00072 6.90519 4.88494C6.90519 3.76915 6.00066 2.86462 4.88488 2.86462C3.76909 2.86462 2.86456 3.76915 2.86456 4.88494C2.86456 6.00072 3.76909 6.90525 4.88488 6.90525Z" stroke="#0D203C" stroke-linecap="round" stroke-linejoin="round"/>
<path d="M4.88488 22.1355C6.00066 22.1355 6.90519 21.2309 6.90519 20.1152C6.90519 18.9994 6.00066 18.0948 4.88488 18.0948C3.76909 18.0948 2.86456 18.9994 2.86456 20.1152C2.86456 21.2309 3.76909 22.1355 4.88488 22.1355Z" stroke="#0D203C" stroke-linecap="round" stroke-linejoin="round"/>
<path d="M4.88488 14.5204C6.00066 14.5204 6.90519 13.6158 6.90519 12.5C6.90519 11.3843 6.00066 10.4797 4.88488 10.4797C3.76909 10.4797 2.86456 11.3843 2.86456 12.5C2.86456 13.6158 3.76909 14.5204 4.88488 14.5204Z" stroke="#0D203C" stroke-linecap="round" stroke-linejoin="round"/>
<path d="M21.2031 2.86462H10.0135C9.49864 2.86462 9.08124 3.28203 9.08124 3.79692V5.97296C9.08124 6.48785 9.49864 6.90525 10.0135 6.90525H21.2031C21.718 6.90525 22.1354 6.48785 22.1354 5.97296V3.79692C22.1354 3.28203 21.718 2.86462 21.2031 2.86462Z" stroke="#0D203C" stroke-linecap="round" stroke-linejoin="round"/>
<path d="M21.2031 18.0948H10.0135C9.49864 18.0948 9.08124 18.5123 9.08124 19.0271V21.2032C9.08124 21.7181 9.49864 22.1355 10.0135 22.1355H21.2031C21.718 22.1355 22.1354 21.7181 22.1354 21.2032V19.0271C22.1354 18.5123 21.718 18.0948 21.2031 18.0948Z" stroke="#0D203C" stroke-linecap="round" stroke-linejoin="round"/>
<path d="M21.2031 10.4797H10.0135C9.49864 10.4797 9.08124 10.8971 9.08124 11.412V13.5881C9.08124 14.103 9.49864 14.5204 10.0135 14.5204H21.2031C21.718 14.5204 22.1354 14.103 22.1354 13.5881V11.412C22.1354 10.8971 21.718 10.4797 21.2031 10.4797Z" stroke="#0D203C" stroke-linecap="round" stroke-linejoin="round"/>
</svg>
