<svg width="25" height="25" viewBox="0 0 25 25" fill="none" xmlns="http://www.w3.org/2000/svg">
<path d="M4.88481 6.90521C6.0006 6.90521 6.90513 6.00069 6.90513 4.8849C6.90513 3.76911 6.0006 2.86459 4.88481 2.86459C3.76903 2.86459 2.8645 3.76911 2.8645 4.8849C2.8645 6.00069 3.76903 6.90521 4.88481 6.90521Z" stroke="#0D203C" stroke-linecap="round" stroke-linejoin="round"/>
<path d="M4.88481 22.1354C6.0006 22.1354 6.90513 21.2309 6.90513 20.1151C6.90513 18.9993 6.0006 18.0948 4.88481 18.0948C3.76903 18.0948 2.8645 18.9993 2.8645 20.1151C2.8645 21.2309 3.76903 22.1354 4.88481 22.1354Z" stroke="#0D203C" stroke-linecap="round" stroke-linejoin="round"/>
<path d="M4.88481 14.5203C6.0006 14.5203 6.90513 13.6158 6.90513 12.5C6.90513 11.3842 6.0006 10.4797 4.88481 10.4797C3.76903 10.4797 2.8645 11.3842 2.8645 12.5C2.8645 13.6158 3.76903 14.5203 4.88481 14.5203Z" stroke="#0D203C" stroke-linecap="round" stroke-linejoin="round"/>
<path d="M21.2032 2.86459H10.0136C9.4987 2.86459 9.0813 3.28199 9.0813 3.79688V5.97292C9.0813 6.48781 9.4987 6.90521 10.0136 6.90521H21.2032C21.7181 6.90521 22.1355 6.48781 22.1355 5.97292V3.79688C22.1355 3.28199 21.7181 2.86459 21.2032 2.86459Z" stroke="#0D203C" stroke-linecap="round" stroke-linejoin="round"/>
<path d="M21.2032 18.0948H10.0136C9.4987 18.0948 9.0813 18.5122 9.0813 19.0271V21.2031C9.0813 21.718 9.4987 22.1354 10.0136 22.1354H21.2032C21.7181 22.1354 22.1355 21.718 22.1355 21.2031V19.0271C22.1355 18.5122 21.7181 18.0948 21.2032 18.0948Z" stroke="#0D203C" stroke-linecap="round" stroke-linejoin="round"/>
<path d="M21.2032 10.4797H10.0136C9.4987 10.4797 9.0813 10.8971 9.0813 11.412V13.588C9.0813 14.1029 9.4987 14.5203 10.0136 14.5203H21.2032C21.7181 14.5203 22.1355 14.1029 22.1355 13.588V11.412C22.1355 10.8971 21.7181 10.4797 21.2032 10.4797Z" stroke="#0D203C" stroke-linecap="round" stroke-linejoin="round"/>
</svg>
