<svg width="25" height="25" viewBox="0 0 25 25" fill="none" xmlns="http://www.w3.org/2000/svg">
<path d="M4.88488 6.9052C6.00066 6.9052 6.90519 6.00068 6.90519 4.88489C6.90519 3.7691 6.00066 2.86458 4.88488 2.86458C3.76909 2.86458 2.86456 3.7691 2.86456 4.88489C2.86456 6.00068 3.76909 6.9052 4.88488 6.9052Z" stroke="#0D203C" stroke-linecap="round" stroke-linejoin="round"/>
<path d="M4.88488 22.1354C6.00066 22.1354 6.90519 21.2309 6.90519 20.1151C6.90519 18.9993 6.00066 18.0948 4.88488 18.0948C3.76909 18.0948 2.86456 18.9993 2.86456 20.1151C2.86456 21.2309 3.76909 22.1354 4.88488 22.1354Z" stroke="#0D203C" stroke-linecap="round" stroke-linejoin="round"/>
<path d="M4.88488 14.5203C6.00066 14.5203 6.90519 13.6158 6.90519 12.5C6.90519 11.3842 6.00066 10.4797 4.88488 10.4797C3.76909 10.4797 2.86456 11.3842 2.86456 12.5C2.86456 13.6158 3.76909 14.5203 4.88488 14.5203Z" stroke="#0D203C" stroke-linecap="round" stroke-linejoin="round"/>
<path d="M21.2031 2.86458H10.0135C9.49864 2.86458 9.08124 3.28198 9.08124 3.79687V5.97291C9.08124 6.4878 9.49864 6.9052 10.0135 6.9052H21.2031C21.718 6.9052 22.1354 6.4878 22.1354 5.97291V3.79687C22.1354 3.28198 21.718 2.86458 21.2031 2.86458Z" stroke="#0D203C" stroke-linecap="round" stroke-linejoin="round"/>
<path d="M21.2031 18.0948H10.0135C9.49864 18.0948 9.08124 18.5122 9.08124 19.0271V21.2031C9.08124 21.718 9.49864 22.1354 10.0135 22.1354H21.2031C21.718 22.1354 22.1354 21.718 22.1354 21.2031V19.0271C22.1354 18.5122 21.718 18.0948 21.2031 18.0948Z" stroke="#0D203C" stroke-linecap="round" stroke-linejoin="round"/>
<path d="M21.2031 10.4797H10.0135C9.49864 10.4797 9.08124 10.8971 9.08124 11.412V13.588C9.08124 14.1029 9.49864 14.5203 10.0135 14.5203H21.2031C21.718 14.5203 22.1354 14.1029 22.1354 13.588V11.412C22.1354 10.8971 21.718 10.4797 21.2031 10.4797Z" stroke="#0D203C" stroke-linecap="round" stroke-linejoin="round"/>
</svg>
