<svg width="39" height="37" viewBox="0 0 39 37" fill="none" xmlns="http://www.w3.org/2000/svg">
<path d="M38.4763 18.6216C38.4763 28.6272 30.1379 36.75 19.8374 36.75C9.53696 36.75 1.19855 28.6272 1.19855 18.6216C1.19855 8.61599 9.53696 0.493225 19.8374 0.493225C30.1379 0.493225 38.4763 8.61599 38.4763 18.6216Z" fill="white" stroke="#324A6D" stroke-width="0.5"/>
<g clip-path="url(#clip0_18_370)">
<path d="M9.83743 11.8108C9.83743 10.8 10.6874 9.97296 11.7263 9.97296H26.8374C27.3384 9.97296 27.8188 10.1666 28.1731 10.5113C28.5273 10.8559 28.7263 11.3234 28.7263 11.8108V13.6486H9.83743V11.8108ZM10.7819 14.5676H27.7819V26.5135C27.7819 27.0009 27.5829 27.4684 27.2286 27.813C26.8744 28.1577 26.394 28.3513 25.893 28.3513H12.6708C12.1698 28.3513 11.6894 28.1577 11.3351 27.813C10.9809 27.4684 10.7819 27.0009 10.7819 26.5135V14.5676ZM16.4485 16.4054V18.2432H22.1152V16.4054H16.4485Z" fill="#324A6D"/>
</g>
<defs>
<clipPath id="clip0_18_370">
<rect width="18.8889" height="18.3784" fill="white" transform="translate(9.83743 9.97296)"/>
</clipPath>
</defs>
</svg>
