<svg width="41" height="40" viewBox="0 0 41 40" fill="none" xmlns="http://www.w3.org/2000/svg">
<circle cx="20.0172" cy="20" r="19.75" stroke="#324A6D" stroke-width="0.5"/>
<path fill-rule="evenodd" clip-rule="evenodd" d="M15.4289 11.9216C15.6057 11.9216 15.7753 11.9918 15.9003 12.1168C16.0253 12.2419 16.0956 12.4114 16.0956 12.5882V13.2549H22.7622V12.5882C22.7622 12.4114 22.8325 12.2419 22.9575 12.1168C23.0825 11.9918 23.2521 11.9216 23.4289 11.9216C23.6057 11.9216 23.7753 11.9918 23.9003 12.1168C24.0253 12.2419 24.0956 12.4114 24.0956 12.5882V13.2549H26.0956C26.626 13.2549 27.1347 13.4656 27.5098 13.8407C27.8849 14.2158 28.0956 14.7245 28.0956 15.2549V27.2549C28.0956 27.7853 27.8849 28.294 27.5098 28.6691C27.1347 29.0442 26.626 29.2549 26.0956 29.2549H12.7622C12.2318 29.2549 11.7231 29.0442 11.348 28.6691C10.973 28.294 10.7622 27.7853 10.7622 27.2549V15.2549C10.7622 14.7245 10.973 14.2158 11.348 13.8407C11.7231 13.4656 12.2318 13.2549 12.7622 13.2549H14.7622V12.5882C14.7622 12.4114 14.8325 12.2419 14.9575 12.1168C15.0825 11.9918 15.2521 11.9216 15.4289 11.9216ZM22.7622 14.5882V15.2549C22.7622 15.4317 22.8325 15.6013 22.9575 15.7263C23.0825 15.8513 23.2521 15.9216 23.4289 15.9216C23.6057 15.9216 23.7753 15.8513 23.9003 15.7263C24.0253 15.6013 24.0956 15.4317 24.0956 15.2549V14.5882H26.0956C26.2724 14.5882 26.442 14.6585 26.567 14.7835C26.692 14.9085 26.7622 15.0781 26.7622 15.2549V17.2549H12.0956V15.2549C12.0956 15.0781 12.1658 14.9085 12.2908 14.7835C12.4159 14.6585 12.5854 14.5882 12.7622 14.5882H14.7622V15.2549C14.7622 15.4317 14.8325 15.6013 14.9575 15.7263C15.0825 15.8513 15.2521 15.9216 15.4289 15.9216C15.6057 15.9216 15.7753 15.8513 15.9003 15.7263C16.0253 15.6013 16.0956 15.4317 16.0956 15.2549V14.5882H22.7622ZM12.0956 18.5882V27.2549C12.0956 27.4317 12.1658 27.6013 12.2908 27.7263C12.4159 27.8513 12.5854 27.9216 12.7622 27.9216H26.0956C26.2724 27.9216 26.442 27.8513 26.567 27.7263C26.692 27.6013 26.7622 27.4317 26.7622 27.2549V18.5882H12.0956ZM18.7622 20.5882C18.7622 20.4114 18.8325 20.2419 18.9575 20.1168C19.0825 19.9918 19.2521 19.9216 19.4289 19.9216C19.6057 19.9216 19.7753 19.9918 19.9003 20.1168C20.0253 20.2419 20.0956 20.4114 20.0956 20.5882C20.0956 20.765 20.0253 20.9346 19.9003 21.0596C19.7753 21.1847 19.6057 21.2549 19.4289 21.2549C19.2521 21.2549 19.0825 21.1847 18.9575 21.0596C18.8325 20.9346 18.7622 20.765 18.7622 20.5882ZM22.0956 19.9216C21.9188 19.9216 21.7492 19.9918 21.6242 20.1168C21.4991 20.2419 21.4289 20.4114 21.4289 20.5882C21.4289 20.765 21.4991 20.9346 21.6242 21.0596C21.7492 21.1847 21.9188 21.2549 22.0956 21.2549C22.2724 21.2549 22.442 21.1847 22.567 21.0596C22.692 20.9346 22.7622 20.765 22.7622 20.5882C22.7622 20.4114 22.692 20.2419 22.567 20.1168C22.442 19.9918 22.2724 19.9216 22.0956 19.9216ZM24.0956 20.5882C24.0956 20.4114 24.1658 20.2419 24.2908 20.1168C24.4159 19.9918 24.5854 19.9216 24.7622 19.9216C24.939 19.9216 25.1086 19.9918 25.2336 20.1168C25.3587 20.2419 25.4289 20.4114 25.4289 20.5882C25.4289 20.765 25.3587 20.9346 25.2336 21.0596C25.1086 21.1847 24.939 21.2549 24.7622 21.2549C24.5854 21.2549 24.4159 21.1847 24.2908 21.0596C24.1658 20.9346 24.0956 20.765 24.0956 20.5882ZM24.7622 22.5882C24.5854 22.5882 24.4159 22.6585 24.2908 22.7835C24.1658 22.9085 24.0956 23.0781 24.0956 23.2549C24.0956 23.4317 24.1658 23.6013 24.2908 23.7263C24.4159 23.8513 24.5854 23.9216 24.7622 23.9216C24.939 23.9216 25.1086 23.8513 25.2336 23.7263C25.3587 23.6013 25.4289 23.4317 25.4289 23.2549C25.4289 23.0781 25.3587 22.9085 25.2336 22.7835C25.1086 22.6585 24.939 22.5882 24.7622 22.5882ZM21.4289 23.2549C21.4289 23.0781 21.4991 22.9085 21.6242 22.7835C21.7492 22.6585 21.9188 22.5882 22.0956 22.5882C22.2724 22.5882 22.442 22.6585 22.567 22.7835C22.692 22.9085 22.7622 23.0781 22.7622 23.2549C22.7622 23.4317 22.692 23.6013 22.567 23.7263C22.442 23.8513 22.2724 23.9216 22.0956 23.9216C21.9188 23.9216 21.7492 23.8513 21.6242 23.7263C21.4991 23.6013 21.4289 23.4317 21.4289 23.2549ZM19.4289 22.5882C19.2521 22.5882 19.0825 22.6585 18.9575 22.7835C18.8325 22.9085 18.7622 23.0781 18.7622 23.2549C18.7622 23.4317 18.8325 23.6013 18.9575 23.7263C19.0825 23.8513 19.2521 23.9216 19.4289 23.9216C19.6057 23.9216 19.7753 23.8513 19.9003 23.7263C20.0253 23.6013 20.0956 23.4317 20.0956 23.2549C20.0956 23.0781 20.0253 22.9085 19.9003 22.7835C19.7753 22.6585 19.6057 22.5882 19.4289 22.5882ZM16.0956 23.2549C16.0956 23.0781 16.1658 22.9085 16.2908 22.7835C16.4159 22.6585 16.5854 22.5882 16.7622 22.5882C16.939 22.5882 17.1086 22.6585 17.2336 22.7835C17.3587 22.9085 17.4289 23.0781 17.4289 23.2549C17.4289 23.4317 17.3587 23.6013 17.2336 23.7263C17.1086 23.8513 16.939 23.9216 16.7622 23.9216C16.5854 23.9216 16.4159 23.8513 16.2908 23.7263C16.1658 23.6013 16.0956 23.4317 16.0956 23.2549ZM14.0956 22.5882C13.9188 22.5882 13.7492 22.6585 13.6242 22.7835C13.4991 22.9085 13.4289 23.0781 13.4289 23.2549C13.4289 23.4317 13.4991 23.6013 13.6242 23.7263C13.7492 23.8513 13.9188 23.9216 14.0956 23.9216C14.2724 23.9216 14.442 23.8513 14.567 23.7263C14.692 23.6013 14.7622 23.4317 14.7622 23.2549C14.7622 23.0781 14.692 22.9085 14.567 22.7835C14.442 22.6585 14.2724 22.5882 14.0956 22.5882ZM13.4289 25.9216C13.4289 25.7448 13.4991 25.5752 13.6242 25.4502C13.7492 25.3251 13.9188 25.2549 14.0956 25.2549C14.2724 25.2549 14.442 25.3251 14.567 25.4502C14.692 25.5752 14.7622 25.7448 14.7622 25.9216C14.7622 26.0984 14.692 26.268 14.567 26.393C14.442 26.518 14.2724 26.5882 14.0956 26.5882C13.9188 26.5882 13.7492 26.518 13.6242 26.393C13.4991 26.268 13.4289 26.0984 13.4289 25.9216ZM16.7622 25.2549C16.5854 25.2549 16.4159 25.3251 16.2908 25.4502C16.1658 25.5752 16.0956 25.7448 16.0956 25.9216C16.0956 26.0984 16.1658 26.268 16.2908 26.393C16.4159 26.518 16.5854 26.5882 16.7622 26.5882C16.939 26.5882 17.1086 26.518 17.2336 26.393C17.3587 26.268 17.4289 26.0984 17.4289 25.9216C17.4289 25.7448 17.3587 25.5752 17.2336 25.4502C17.1086 25.3251 16.939 25.2549 16.7622 25.2549ZM18.7622 25.9216C18.7622 25.7448 18.8325 25.5752 18.9575 25.4502C19.0825 25.3251 19.2521 25.2549 19.4289 25.2549C19.6057 25.2549 19.7753 25.3251 19.9003 25.4502C20.0253 25.5752 20.0956 25.7448 20.0956 25.9216C20.0956 26.0984 20.0253 26.268 19.9003 26.393C19.7753 26.518 19.6057 26.5882 19.4289 26.5882C19.2521 26.5882 19.0825 26.518 18.9575 26.393C18.8325 26.268 18.7622 26.0984 18.7622 25.9216ZM22.0956 25.2549C21.9188 25.2549 21.7492 25.3251 21.6242 25.4502C21.4991 25.5752 21.4289 25.7448 21.4289 25.9216C21.4289 26.0984 21.4991 26.268 21.6242 26.393C21.7492 26.518 21.9188 26.5882 22.0956 26.5882C22.2724 26.5882 22.442 26.518 22.567 26.393C22.692 26.268 22.7622 26.0984 22.7622 25.9216C22.7622 25.7448 22.692 25.5752 22.567 25.4502C22.442 25.3251 22.2724 25.2549 22.0956 25.2549Z" fill="#324A6D"/>
</svg>
