<svg width="25" height="25" viewBox="0 0 25 25" fill="none" xmlns="http://www.w3.org/2000/svg">
<path d="M1.5625 21.875H23.4375V23.4375H1.5625V21.875ZM21.0938 8.59375C21.301 8.59375 21.4997 8.51144 21.6462 8.36493C21.7927 8.21842 21.875 8.0197 21.875 7.8125V5.46875C21.8749 5.3082 21.8254 5.15156 21.7331 5.02016C21.6409 4.88875 21.5104 4.78897 21.3594 4.73438L12.7656 1.60938C12.594 1.54732 12.406 1.54732 12.2344 1.60938L3.64062 4.73438C3.48963 4.78897 3.35913 4.88875 3.26686 5.02016C3.1746 5.15156 3.12507 5.3082 3.125 5.46875V7.8125C3.125 8.0197 3.20731 8.21842 3.35382 8.36493C3.50034 8.51144 3.69905 8.59375 3.90625 8.59375H4.6875V18.75H3.125V20.3125H21.875V18.75H20.3125V8.59375H21.0938ZM4.6875 6.01563L12.5 3.17188L20.3125 6.01563V7.03125H4.6875V6.01563ZM14.0625 18.75H10.9375V8.59375H14.0625V18.75ZM6.25 8.59375H9.375V18.75H6.25V8.59375ZM18.75 18.75H15.625V8.59375H18.75V18.75Z" fill="#0D203C"/>
</svg>
