<svg width="25" height="25" viewBox="0 0 25 25" fill="none" xmlns="http://www.w3.org/2000/svg">
<path d="M1.5625 21.875H23.4375V23.4375H1.5625V21.875ZM21.0938 8.59378C21.301 8.59378 21.4997 8.51147 21.6462 8.36496C21.7927 8.21845 21.875 8.01973 21.875 7.81253V5.46878C21.8749 5.30823 21.8254 5.15159 21.7331 5.02019C21.6409 4.88878 21.5104 4.789 21.3594 4.73441L12.7656 1.60941C12.594 1.54735 12.406 1.54735 12.2344 1.60941L3.64062 4.73441C3.48963 4.789 3.35913 4.88878 3.26686 5.02019C3.1746 5.15159 3.12507 5.30823 3.125 5.46878V7.81253C3.125 8.01973 3.20731 8.21845 3.35382 8.36496C3.50034 8.51147 3.69905 8.59378 3.90625 8.59378H4.6875V18.75H3.125V20.3125H21.875V18.75H20.3125V8.59378H21.0938ZM4.6875 6.01566L12.5 3.17191L20.3125 6.01566V7.03128H4.6875V6.01566ZM14.0625 18.75H10.9375V8.59378H14.0625V18.75ZM6.25 8.59378H9.375V18.75H6.25V8.59378ZM18.75 18.75H15.625V8.59378H18.75V18.75Z" fill="#0D203C"/>
</svg>
