<svg width="68" height="68" viewBox="0 0 68 68" fill="none" xmlns="http://www.w3.org/2000/svg">
<g filter="url(#filter0_d_48_108)">
<circle cx="34" cy="30" r="30" fill="#2ECAB5"/>
<path d="M33.6666 15.3333C41.6796 15.3333 48.6666 21.9483 48.6666 29.5833C48.6666 37.0893 41.8371 42.9963 33.6666 42.9963C31.9191 42.9973 30.1825 42.7208 28.5216 42.1773C27.8256 42.8523 27.5871 43.0818 26.1096 44.5068C25.0446 45.3108 24.0426 45.5838 23.1471 45.0768C22.2441 44.5668 21.9726 43.5738 22.1571 42.2658L22.7571 38.7873C20.1516 36.3363 18.6666 33.0963 18.6666 29.5833C18.6666 21.9483 25.6521 15.3333 33.6666 15.3333ZM33.6666 17.4333C26.7876 17.4333 20.7666 23.1333 20.7666 29.5833C20.7666 32.6508 22.1346 35.4753 24.5466 37.5783L24.5766 37.6038L25.0221 37.9908L24.9216 38.5758L24.7146 39.7818L24.6591 40.1028L24.2316 42.5898C24.2064 42.7573 24.1914 42.9261 24.1866 43.0953V43.2378C24.1866 43.2453 24.1851 43.2483 24.1836 43.2498C24.1941 43.2348 24.3981 43.1703 24.7476 42.9153L28.0026 39.7563L28.6236 39.9903C30.2368 40.5922 31.9449 40.8996 33.6666 40.8978C40.7406 40.8978 46.5666 35.8578 46.5666 29.5833C46.5666 23.1348 40.5456 17.4333 33.6666 17.4333ZM26.5071 27.0528C26.8093 27.0418 27.1106 27.0918 27.3931 27.1998C27.6755 27.3078 27.9333 27.4717 28.1509 27.6816C28.3686 27.8914 28.5418 28.143 28.6601 28.4213C28.7783 28.6997 28.8393 28.9989 28.8393 29.3013C28.8393 29.6037 28.7783 29.903 28.6601 30.1813C28.5418 30.4596 28.3686 30.7112 28.1509 30.9211C27.9333 31.131 27.6755 31.2948 27.3931 31.4029C27.1106 31.5109 26.8093 31.5609 26.5071 31.5498C25.925 31.5286 25.3738 31.2824 24.9695 30.863C24.5652 30.4437 24.3393 29.8838 24.3393 29.3013C24.3393 28.7188 24.5652 28.159 24.9695 27.7397C25.3738 27.3203 25.925 27.0741 26.5071 27.0528ZM34.0041 27.0528C34.3063 27.0418 34.6076 27.0918 34.8901 27.1998C35.1725 27.3078 35.4303 27.4717 35.6479 27.6816C35.8656 27.8914 36.0388 28.143 36.1571 28.4213C36.2753 28.6997 36.3363 28.9989 36.3363 29.3013C36.3363 29.6037 36.2753 29.903 36.1571 30.1813C36.0388 30.4596 35.8656 30.7112 35.6479 30.9211C35.4303 31.131 35.1725 31.2948 34.8901 31.4029C34.6076 31.5109 34.3063 31.5609 34.0041 31.5498C33.422 31.5286 32.8708 31.2824 32.4665 30.863C32.0622 30.4437 31.8363 29.8838 31.8363 29.3013C31.8363 28.7188 32.0622 28.159 32.4665 27.7397C32.8708 27.3203 33.422 27.0741 34.0041 27.0528ZM41.4996 27.0528C41.8018 27.0418 42.1031 27.0918 42.3856 27.1998C42.668 27.3078 42.9258 27.4717 43.1434 27.6816C43.3611 27.8914 43.5343 28.143 43.6526 28.4213C43.7708 28.6997 43.8318 28.9989 43.8318 29.3013C43.8318 29.6037 43.7708 29.903 43.6526 30.1813C43.5343 30.4596 43.3611 30.7112 43.1434 30.9211C42.9258 31.131 42.668 31.2948 42.3856 31.4029C42.1031 31.5109 41.8018 31.5609 41.4996 31.5498C40.9175 31.5286 40.3663 31.2824 39.962 30.863C39.5577 30.4437 39.3318 29.8838 39.3318 29.3013C39.3318 28.7188 39.5577 28.159 39.962 27.7397C40.3663 27.3203 40.9175 27.0741 41.4996 27.0528Z" fill="white"/>
</g>
<defs>
<filter id="filter0_d_48_108" x="0" y="0" width="68" height="68" filterUnits="userSpaceOnUse" color-interpolation-filters="sRGB">
<feFlood flood-opacity="0" result="BackgroundImageFix"/>
<feColorMatrix in="SourceAlpha" type="matrix" values="0 0 0 0 0 0 0 0 0 0 0 0 0 0 0 0 0 0 127 0" result="hardAlpha"/>
<feOffset dy="4"/>
<feGaussianBlur stdDeviation="2"/>
<feComposite in2="hardAlpha" operator="out"/>
<feColorMatrix type="matrix" values="0 0 0 0 0 0 0 0 0 0 0 0 0 0 0 0 0 0 0.25 0"/>
<feBlend mode="normal" in2="BackgroundImageFix" result="effect1_dropShadow_48_108"/>
<feBlend mode="normal" in="SourceGraphic" in2="effect1_dropShadow_48_108" result="shape"/>
</filter>
</defs>
</svg>
