<svg width="68" height="68" viewBox="0 0 68 68" fill="none" xmlns="http://www.w3.org/2000/svg">
<g filter="url(#filter0_d_55_303)">
<circle cx="34" cy="30" r="30" fill="#2ECAB5"/>
<path d="M33.6667 15.3333C41.6797 15.3333 48.6667 21.9483 48.6667 29.5833C48.6667 37.0893 41.8372 42.9963 33.6667 42.9963C31.9192 42.9973 30.1826 42.7208 28.5217 42.1773C27.8257 42.8523 27.5872 43.0818 26.1097 44.5068C25.0447 45.3108 24.0427 45.5838 23.1472 45.0768C22.2442 44.5668 21.9727 43.5738 22.1572 42.2658L22.7572 38.7873C20.1517 36.3363 18.6667 33.0963 18.6667 29.5833C18.6667 21.9483 25.6522 15.3333 33.6667 15.3333ZM33.6667 17.4333C26.7877 17.4333 20.7667 23.1333 20.7667 29.5833C20.7667 32.6508 22.1347 35.4753 24.5467 37.5783L24.5767 37.6038L25.0222 37.9908L24.9217 38.5758L24.7147 39.7818L24.6592 40.1028L24.2317 42.5898C24.2065 42.7573 24.1915 42.9261 24.1867 43.0953V43.2378C24.1867 43.2453 24.1852 43.2483 24.1837 43.2498C24.1942 43.2348 24.3982 43.1703 24.7477 42.9153L28.0027 39.7563L28.6237 39.9903C30.2369 40.5922 31.945 40.8996 33.6667 40.8978C40.7407 40.8978 46.5667 35.8578 46.5667 29.5833C46.5667 23.1348 40.5457 17.4333 33.6667 17.4333ZM26.5072 27.0528C26.8094 27.0418 27.1107 27.0918 27.3932 27.1998C27.6756 27.3078 27.9334 27.4717 28.1511 27.6816C28.3688 27.8914 28.5419 28.143 28.6602 28.4213C28.7784 28.6997 28.8394 28.9989 28.8394 29.3013C28.8394 29.6037 28.7784 29.903 28.6602 30.1813C28.5419 30.4596 28.3688 30.7112 28.1511 30.9211C27.9334 31.131 27.6756 31.2948 27.3932 31.4029C27.1107 31.5109 26.8094 31.5609 26.5072 31.5498C25.9251 31.5286 25.3739 31.2824 24.9696 30.863C24.5653 30.4437 24.3394 29.8838 24.3394 29.3013C24.3394 28.7188 24.5653 28.159 24.9696 27.7397C25.3739 27.3203 25.9251 27.0741 26.5072 27.0528ZM34.0042 27.0528C34.3064 27.0418 34.6077 27.0918 34.8902 27.1998C35.1726 27.3078 35.4304 27.4717 35.6481 27.6816C35.8658 27.8914 36.0389 28.143 36.1572 28.4213C36.2754 28.6997 36.3364 28.9989 36.3364 29.3013C36.3364 29.6037 36.2754 29.903 36.1572 30.1813C36.0389 30.4596 35.8658 30.7112 35.6481 30.9211C35.4304 31.131 35.1726 31.2948 34.8902 31.4029C34.6077 31.5109 34.3064 31.5609 34.0042 31.5498C33.4221 31.5286 32.8709 31.2824 32.4666 30.863C32.0623 30.4437 31.8364 29.8838 31.8364 29.3013C31.8364 28.7188 32.0623 28.159 32.4666 27.7397C32.8709 27.3203 33.4221 27.0741 34.0042 27.0528ZM41.4997 27.0528C41.8019 27.0418 42.1032 27.0918 42.3857 27.1998C42.6681 27.3078 42.9259 27.4717 43.1436 27.6816C43.3613 27.8914 43.5344 28.143 43.6527 28.4213C43.7709 28.6997 43.8319 28.9989 43.8319 29.3013C43.8319 29.6037 43.7709 29.903 43.6527 30.1813C43.5344 30.4596 43.3613 30.7112 43.1436 30.9211C42.9259 31.131 42.6681 31.2948 42.3857 31.4029C42.1032 31.5109 41.8019 31.5609 41.4997 31.5498C40.9176 31.5286 40.3664 31.2824 39.9621 30.863C39.5578 30.4437 39.3319 29.8838 39.3319 29.3013C39.3319 28.7188 39.5578 28.159 39.9621 27.7397C40.3664 27.3203 40.9176 27.0741 41.4997 27.0528Z" fill="white"/>
</g>
<defs>
<filter id="filter0_d_55_303" x="0" y="0" width="68" height="68" filterUnits="userSpaceOnUse" color-interpolation-filters="sRGB">
<feFlood flood-opacity="0" result="BackgroundImageFix"/>
<feColorMatrix in="SourceAlpha" type="matrix" values="0 0 0 0 0 0 0 0 0 0 0 0 0 0 0 0 0 0 127 0" result="hardAlpha"/>
<feOffset dy="4"/>
<feGaussianBlur stdDeviation="2"/>
<feComposite in2="hardAlpha" operator="out"/>
<feColorMatrix type="matrix" values="0 0 0 0 0 0 0 0 0 0 0 0 0 0 0 0 0 0 0.25 0"/>
<feBlend mode="normal" in2="BackgroundImageFix" result="effect1_dropShadow_55_303"/>
<feBlend mode="normal" in="SourceGraphic" in2="effect1_dropShadow_55_303" result="shape"/>
</filter>
</defs>
</svg>
