<svg width="88" height="88" viewBox="0 0 88 88" fill="none" xmlns="http://www.w3.org/2000/svg">
<g filter="url(#filter0_d_7_335)">
<circle cx="44" cy="40" r="40" fill="#2ECAB5"/>
<path d="M43.5555 20.4445C54.2395 20.4445 63.5555 29.2645 63.5555 39.4445C63.5555 49.4525 54.4495 57.3285 43.5555 57.3285C41.2255 57.3297 38.91 56.9611 36.6955 56.2365C35.7675 57.1365 35.4495 57.4425 33.4795 59.3425C32.0595 60.4145 30.7235 60.7785 29.5295 60.1025C28.3255 59.4225 27.9635 58.0985 28.2095 56.3545L29.0095 51.7165C25.5355 48.4485 23.5555 44.1285 23.5555 39.4445C23.5555 29.2645 32.8695 20.4445 43.5555 20.4445ZM43.5555 23.2445C34.3835 23.2445 26.3555 30.8445 26.3555 39.4445C26.3555 43.5345 28.1795 47.3005 31.3955 50.1045L31.4355 50.1385L32.0295 50.6545L31.8955 51.4345L31.6195 53.0425L31.5455 53.4705L30.9755 56.7865C30.9419 57.0097 30.9219 57.2348 30.9155 57.4605V57.6505C30.9155 57.6605 30.9135 57.6645 30.9115 57.6665C30.9255 57.6465 31.1975 57.5605 31.6635 57.2205L36.0035 53.0085L36.8315 53.3205C38.9824 54.123 41.2599 54.5328 43.5555 54.5305C52.9875 54.5305 60.7555 47.8105 60.7555 39.4445C60.7555 30.8465 52.7275 23.2445 43.5555 23.2445ZM34.0095 36.0705C34.4125 36.0557 34.8142 36.1224 35.1908 36.2664C35.5674 36.4105 35.9111 36.6289 36.2013 36.9088C36.4916 37.1886 36.7224 37.5241 36.8801 37.8952C37.0378 38.2662 37.1191 38.6653 37.1191 39.0685C37.1191 39.4716 37.0378 39.8707 36.8801 40.2418C36.7224 40.6128 36.4916 40.9483 36.2013 41.2282C35.9111 41.508 35.5674 41.7265 35.1908 41.8705C34.8142 42.0145 34.4125 42.0812 34.0095 42.0665C33.2334 42.0381 32.4985 41.7098 31.9594 41.1507C31.4203 40.5916 31.1191 39.8451 31.1191 39.0685C31.1191 38.2918 31.4203 37.5454 31.9594 36.9862C32.4985 36.4271 33.2334 36.0988 34.0095 36.0705ZM44.0055 36.0705C44.4085 36.0557 44.8102 36.1224 45.1868 36.2664C45.5634 36.4105 45.9071 36.6289 46.1973 36.9088C46.4876 37.1886 46.7184 37.5241 46.8761 37.8952C47.0338 38.2662 47.1151 38.6653 47.1151 39.0685C47.1151 39.4716 47.0338 39.8707 46.8761 40.2418C46.7184 40.6128 46.4876 40.9483 46.1973 41.2282C45.9071 41.508 45.5634 41.7265 45.1868 41.8705C44.8102 42.0145 44.4085 42.0812 44.0055 42.0665C43.2294 42.0381 42.4945 41.7098 41.9554 41.1507C41.4163 40.5916 41.1151 39.8451 41.1151 39.0685C41.1151 38.2918 41.4163 37.5454 41.9554 36.9862C42.4945 36.4271 43.2294 36.0988 44.0055 36.0705ZM53.9995 36.0705C54.4025 36.0557 54.8042 36.1224 55.1808 36.2664C55.5574 36.4105 55.9011 36.6289 56.1913 36.9088C56.4816 37.1886 56.7124 37.5241 56.8701 37.8952C57.0278 38.2662 57.1091 38.6653 57.1091 39.0685C57.1091 39.4716 57.0278 39.8707 56.8701 40.2418C56.7124 40.6128 56.4816 40.9483 56.1913 41.2282C55.9011 41.508 55.5574 41.7265 55.1808 41.8705C54.8042 42.0145 54.4025 42.0812 53.9995 42.0665C53.2234 42.0381 52.4885 41.7098 51.9494 41.1507C51.4103 40.5916 51.1091 39.8451 51.1091 39.0685C51.1091 38.2918 51.4103 37.5454 51.9494 36.9862C52.4885 36.4271 53.2234 36.0988 53.9995 36.0705Z" fill="white"/>
</g>
<defs>
<filter id="filter0_d_7_335" x="0" y="0" width="88" height="88" filterUnits="userSpaceOnUse" color-interpolation-filters="sRGB">
<feFlood flood-opacity="0" result="BackgroundImageFix"/>
<feColorMatrix in="SourceAlpha" type="matrix" values="0 0 0 0 0 0 0 0 0 0 0 0 0 0 0 0 0 0 127 0" result="hardAlpha"/>
<feOffset dy="4"/>
<feGaussianBlur stdDeviation="2"/>
<feComposite in2="hardAlpha" operator="out"/>
<feColorMatrix type="matrix" values="0 0 0 0 0 0 0 0 0 0 0 0 0 0 0 0 0 0 0.25 0"/>
<feBlend mode="normal" in2="BackgroundImageFix" result="effect1_dropShadow_7_335"/>
<feBlend mode="normal" in="SourceGraphic" in2="effect1_dropShadow_7_335" result="shape"/>
</filter>
</defs>
</svg>
