<svg width="40" height="40" viewBox="0 0 40 40" fill="none" xmlns="http://www.w3.org/2000/svg">
<circle cx="20" cy="20" r="19.75" stroke="#324A6D" stroke-width="0.5"/>
<path d="M27.8133 22.3234C27.3086 23.971 26.2971 25.4175 24.9227 26.457C23.716 27.3652 22.2801 27.919 20.7761 28.0565C19.2722 28.1939 17.7597 27.9095 16.4084 27.235C15.0571 26.5606 13.9205 25.5229 13.1262 24.2384C12.3319 22.9539 11.9114 21.4735 11.9118 19.9632C11.9063 18.2005 12.4794 16.4846 13.543 15.0789C14.5825 13.7045 16.029 12.693 17.6766 12.1882C17.7852 12.1548 17.9008 12.1516 18.0111 12.179C18.1214 12.2063 18.2221 12.2633 18.3025 12.3436C18.3828 12.424 18.4397 12.5247 18.4671 12.635C18.4945 12.7452 18.4913 12.8609 18.4578 12.9695C18.0976 14.1612 18.0674 15.4284 18.3704 16.6359C18.6735 17.8435 19.2985 18.9462 20.1789 19.8266C21.0593 20.7069 22.162 21.3319 23.3695 21.635C24.5771 21.9381 25.8442 21.9079 27.036 21.5476C27.1446 21.5142 27.2602 21.511 27.3705 21.5383C27.4808 21.5657 27.5815 21.6226 27.6618 21.703C27.7422 21.7833 27.7991 21.8841 27.8265 21.9943C27.8539 22.1046 27.8507 22.2203 27.8172 22.3289L27.8133 22.3234Z" fill="#324A6D"/>
</svg>
