<svg width="41" height="40" viewBox="0 0 41 40" fill="none" xmlns="http://www.w3.org/2000/svg">
<g clip-path="url(#clip0_48_88)">
<path d="M39.9104 9.11458C40.5393 10.1042 40.6808 11.224 40.3349 12.474L33.8491 36.0677C33.5503 37.1788 32.9489 38.112 32.0448 38.8672C31.1407 39.6224 30.1777 40 29.1557 40H7.38681C6.17612 40 5.00867 39.5356 3.88445 38.6068C2.76024 37.678 1.97801 36.5365 1.53776 35.1823C1.1604 34.0191 1.14467 32.9167 1.49059 31.875C1.49059 31.8056 1.51417 31.5712 1.56134 31.1719C1.60851 30.7726 1.63996 30.4514 1.65568 30.2083C1.6714 30.0694 1.64782 29.8828 1.58493 29.6484C1.52203 29.4141 1.49845 29.2448 1.51417 29.1406C1.54562 28.9497 1.60851 28.7674 1.70285 28.5938C1.79719 28.4201 1.92691 28.2161 2.092 27.9818C2.2571 27.7474 2.38681 27.5434 2.48115 27.3698C2.84279 26.7101 3.19656 25.9158 3.54247 24.987C3.88838 24.0582 4.12423 23.2639 4.25002 22.6042C4.29719 22.4306 4.30112 22.1701 4.26181 21.8229C4.2225 21.4757 4.21857 21.2326 4.25002 21.0938C4.29719 20.9028 4.43084 20.6597 4.65096 20.3646C4.87109 20.0694 5.00474 19.8698 5.05191 19.7656C5.3821 19.1406 5.71228 18.342 6.04247 17.3698C6.37266 16.3976 6.5692 15.6163 6.63209 15.026C6.64782 14.8698 6.62816 14.592 6.57313 14.1927C6.5181 13.7934 6.52203 13.5503 6.58493 13.4635C6.64782 13.2378 6.82077 12.9731 7.10379 12.6693C7.38681 12.3655 7.55977 12.1701 7.62266 12.0833C7.9214 11.6319 8.25552 10.8984 8.62502 9.88281C8.99452 8.86719 9.21071 8.02951 9.2736 7.36979C9.28933 7.2309 9.26574 7.00955 9.20285 6.70573C9.13996 6.40191 9.12423 6.17188 9.15568 6.01562C9.18713 5.87674 9.25788 5.72049 9.36794 5.54688C9.47801 5.37326 9.61952 5.17361 9.79247 4.94792C9.96543 4.72222 10.0991 4.53993 10.1934 4.40104C10.3192 4.19271 10.4489 3.92795 10.5826 3.60677C10.7162 3.28559 10.8341 2.98177 10.9363 2.69531C11.0385 2.40885 11.1643 2.09635 11.3137 1.75781C11.4631 1.41927 11.6164 1.14149 11.7736 0.924479C11.9308 0.707465 12.1392 0.503472 12.3986 0.3125C12.658 0.121528 12.9411 0.0217014 13.2477 0.0130208C13.5543 0.00434028 13.9277 0.0520833 14.3679 0.15625L14.3444 0.234375C14.9418 0.078125 15.3428 0 15.5472 0H33.4953C34.6588 0 35.555 0.486111 36.184 1.45833C36.8129 2.43056 36.9544 3.55903 36.6085 4.84375L30.1462 28.4375C29.5802 30.5035 29.0181 31.8359 28.4599 32.4349C27.9017 33.0339 26.8915 33.3333 25.4293 33.3333H4.93398C4.50945 33.3333 4.21071 33.4635 4.03776 33.724C3.8648 34.0017 3.85694 34.375 4.01417 34.8438C4.39153 36.059 5.5236 36.6667 7.4104 36.6667H29.1793C29.6352 36.6667 30.0755 36.5321 30.5 36.263C30.9245 35.9939 31.1997 35.6337 31.3255 35.1823L38.401 9.47917C38.511 9.09722 38.5503 8.60243 38.5189 7.99479C39.1164 8.25521 39.5802 8.62847 39.9104 9.11458ZM14.8161 9.16667C14.7532 9.39236 14.7689 9.58767 14.8632 9.7526C14.9576 9.91753 15.1148 10 15.3349 10H29.6745C29.8789 10 30.0794 9.91753 30.276 9.7526C30.4725 9.58767 30.6022 9.39236 30.6651 9.16667L31.1604 7.5C31.2233 7.27431 31.2076 7.07899 31.1132 6.91406C31.0189 6.74913 30.8617 6.66667 30.6415 6.66667H16.3019C16.0975 6.66667 15.897 6.74913 15.7005 6.91406C15.5039 7.07899 15.3742 7.27431 15.3113 7.5L14.8161 9.16667ZM12.8585 15.8333C12.7956 16.059 12.8113 16.2543 12.9057 16.4193C13 16.5842 13.1573 16.6667 13.3774 16.6667H27.717C27.9214 16.6667 28.1219 16.5842 28.3184 16.4193C28.515 16.2543 28.6447 16.059 28.7076 15.8333L29.2028 14.1667C29.2657 13.941 29.25 13.7457 29.1557 13.5807C29.0613 13.4158 28.9041 13.3333 28.684 13.3333H14.3444C14.14 13.3333 13.9395 13.4158 13.7429 13.5807C13.5464 13.7457 13.4167 13.941 13.3538 14.1667L12.8585 15.8333Z" fill="#324A6D"/>
</g>
<defs>
<clipPath id="clip0_48_88">
<rect width="40" height="40" fill="white" transform="translate(0.5)"/>
</clipPath>
</defs>
</svg>
