<svg width="50" height="50" viewBox="0 0 50 50" fill="none" xmlns="http://www.w3.org/2000/svg">
<g clip-path="url(#clip0_18_382)">
<path d="M49.263 11.3932C50.0491 12.6302 50.226 14.0299 49.7936 15.5924L41.6863 45.0846C41.3129 46.4735 40.5611 47.64 39.431 48.584C38.3009 49.528 37.0971 50 35.8196 50H8.60849C7.09513 50 5.63581 49.4195 4.23054 48.2585C2.82528 47.0974 1.84749 45.6706 1.29717 43.9779C0.825474 42.5239 0.805819 41.1458 1.23821 39.8438C1.23821 39.7569 1.26769 39.464 1.32665 38.9648C1.38562 38.4657 1.42492 38.0642 1.44458 37.7604C1.46423 37.5868 1.43475 37.3535 1.35613 37.0605C1.27752 36.7676 1.24804 36.556 1.26769 36.4258C1.307 36.1871 1.38562 35.9592 1.50354 35.7422C1.62146 35.5252 1.78361 35.2702 1.98998 34.9772C2.19635 34.6842 2.35849 34.4293 2.47642 34.2122C2.92846 33.3876 3.37068 32.3947 3.80307 31.2337C4.23546 30.0727 4.53027 29.0799 4.6875 28.2552C4.74646 28.0382 4.75138 27.7127 4.70224 27.2786C4.65311 26.8446 4.64819 26.5408 4.6875 26.3672C4.74646 26.1285 4.91352 25.8247 5.18868 25.4557C5.46384 25.0868 5.6309 24.8372 5.68986 24.707C6.1026 23.9258 6.51533 22.9275 6.92807 21.7122C7.3408 20.497 7.58648 19.5204 7.6651 18.7826C7.68475 18.5872 7.66018 18.24 7.59139 17.7409C7.5226 17.2418 7.52752 16.9379 7.60613 16.8294C7.68475 16.5473 7.90095 16.2164 8.25472 15.8366C8.60849 15.4568 8.82469 15.2127 8.9033 15.1042C9.27673 14.5399 9.69438 13.623 10.1563 12.3535C10.6181 11.084 10.8884 10.0369 10.967 9.21224C10.9866 9.03863 10.9572 8.76194 10.8785 8.38216C10.7999 8.00239 10.7803 7.71484 10.8196 7.51953C10.8589 7.34592 10.9473 7.15061 11.0849 6.93359C11.2225 6.71658 11.3994 6.46701 11.6156 6.1849C11.8318 5.90278 11.9988 5.67491 12.1167 5.5013C12.274 5.24089 12.4361 4.90994 12.6032 4.50846C12.7702 4.10699 12.9177 3.72721 13.0454 3.36914C13.1732 3.01107 13.3304 2.62044 13.5171 2.19727C13.7038 1.77409 13.8954 1.42687 14.092 1.1556C14.2885 0.884332 14.5489 0.62934 14.8732 0.390625C15.1975 0.15191 15.5513 0.0271267 15.9346 0.016276C16.3178 0.00542535 16.7846 0.0651042 17.3349 0.195312L17.3054 0.292969C18.0523 0.0976562 18.5535 0 18.809 0H41.2441C42.6985 0 43.8188 0.607639 44.605 1.82292C45.3911 3.03819 45.568 4.44878 45.1356 6.05469L37.0578 35.5469C36.3502 38.1293 35.6476 39.7949 34.9499 40.5436C34.2522 41.2923 32.9894 41.6667 31.1616 41.6667H5.54245C5.01179 41.6667 4.63837 41.8294 4.42217 42.1549C4.20598 42.5022 4.19615 42.9688 4.39269 43.5547C4.86439 45.0738 6.27948 45.8333 8.63797 45.8333H35.8491C36.419 45.8333 36.9693 45.6651 37.5 45.3288C38.0307 44.9924 38.3746 44.5421 38.5318 43.9779L47.3762 11.849C47.5138 11.3715 47.5629 10.753 47.5236 9.99349C48.2704 10.319 48.8502 10.7856 49.263 11.3932ZM17.895 11.4583C17.8164 11.7405 17.8361 11.9846 17.954 12.1908C18.0719 12.3969 18.2685 12.5 18.5436 12.5H36.4682C36.7237 12.5 36.9743 12.3969 37.2199 12.1908C37.4656 11.9846 37.6278 11.7405 37.7064 11.4583L38.3255 9.375C38.4041 9.09288 38.3844 8.84874 38.2665 8.64258C38.1486 8.43641 37.952 8.33333 37.6769 8.33333H19.7524C19.4969 8.33333 19.2463 8.43641 19.0006 8.64258C18.7549 8.84874 18.5928 9.09288 18.5142 9.375L17.895 11.4583ZM15.4481 19.7917C15.3695 20.0738 15.3892 20.3179 15.5071 20.5241C15.625 20.7303 15.8215 20.8333 16.0967 20.8333H34.0212C34.2767 20.8333 34.5273 20.7303 34.773 20.5241C35.0187 20.3179 35.1808 20.0738 35.2594 19.7917L35.8785 17.7083C35.9572 17.4262 35.9375 17.1821 35.8196 16.9759C35.7017 16.7697 35.5051 16.6667 35.23 16.6667H17.3054C17.0499 16.6667 16.7993 16.7697 16.5537 16.9759C16.308 17.1821 16.1458 17.4262 16.0672 17.7083L15.4481 19.7917Z" fill="#324A6D"/>
</g>
<defs>
<clipPath id="clip0_18_382">
<rect width="50" height="50" fill="white"/>
</clipPath>
</defs>
</svg>
