<svg width="25" height="25" viewBox="0 0 25 25" fill="none" xmlns="http://www.w3.org/2000/svg">
<path d="M9.375 10.9375C10.2379 10.9375 10.9375 10.2379 10.9375 9.375C10.9375 8.51206 10.2379 7.8125 9.375 7.8125C8.51206 7.8125 7.8125 8.51206 7.8125 9.375C7.8125 10.2379 8.51206 10.9375 9.375 10.9375Z" fill="#0D203C"/>
<path d="M15.625 10.9375C16.4879 10.9375 17.1875 10.2379 17.1875 9.375C17.1875 8.51206 16.4879 7.8125 15.625 7.8125C14.7621 7.8125 14.0625 8.51206 14.0625 9.375C14.0625 10.2379 14.7621 10.9375 15.625 10.9375Z" fill="#0D203C"/>
<path d="M12.5 23.4375C6.46875 23.4375 1.5625 18.5312 1.5625 12.5C1.5625 6.46875 6.46875 1.5625 12.5 1.5625C18.5312 1.5625 23.4375 6.46875 23.4375 12.5C23.4375 18.5312 18.5312 23.4375 12.5 23.4375ZM12.5 3.125C7.32812 3.125 3.125 7.32812 3.125 12.5C3.125 17.6719 7.32812 21.875 12.5 21.875C17.6719 21.875 21.875 17.6719 21.875 12.5C21.875 7.32812 17.6719 3.125 12.5 3.125Z" fill="#0D203C"/>
<path d="M12.5 17.9688C10.1875 17.9688 8.10937 16.5 7.34374 14.3281C7.28937 14.1375 7.30935 13.9333 7.39965 13.7569C7.48995 13.5804 7.64385 13.4447 7.83027 13.3773C8.01669 13.3099 8.22175 13.3157 8.40406 13.3936C8.58636 13.4714 8.73233 13.6156 8.81249 13.7969C9.08126 14.5603 9.58033 15.2214 10.2408 15.6891C10.9013 16.1568 11.6907 16.408 12.5 16.408C13.3093 16.408 14.0987 16.1568 14.7592 15.6891C15.4197 15.2214 15.9187 14.5603 16.1875 13.7969C16.3281 13.3906 16.7812 13.1719 17.1875 13.3281C17.5937 13.4688 17.8125 13.9219 17.6562 14.3281C17.2796 15.3942 16.5812 16.317 15.6576 16.9692C14.734 17.6213 13.6306 17.9706 12.5 17.9688Z" fill="#0D203C"/>
</svg>
