<svg width="25" height="25" viewBox="0 0 25 25" fill="none" xmlns="http://www.w3.org/2000/svg">
<path d="M15.1042 10.4167L15.0677 10.2719C14.9293 9.71827 14.6098 9.2268 14.1601 8.87556C13.7103 8.52433 13.1561 8.33348 12.5854 8.33333H12.0417C11.5961 8.33346 11.1645 8.48873 10.821 8.77247C10.4775 9.05621 10.2435 9.45071 10.1592 9.88822C10.0749 10.3257 10.1455 10.7789 10.359 11.17C10.5725 11.5611 10.9156 11.8656 11.3292 12.0312L13.6708 12.9687C14.0844 13.1344 14.4275 13.4389 14.641 13.83C14.8545 14.2211 14.9251 14.6743 14.8408 15.1118C14.7565 15.5493 14.5225 15.9438 14.179 16.2275C13.8355 16.5113 13.4039 16.6665 12.9583 16.6667H12.4156C11.8448 16.6668 11.2903 16.476 10.8404 16.1248C10.3904 15.7735 10.0708 15.2819 9.93229 14.7281L9.89583 14.5833M12.5 6.25V8.33333M12.5 16.6667V18.75M21.875 12.5C21.875 13.7311 21.6325 14.9502 21.1614 16.0877C20.6902 17.2251 19.9997 18.2586 19.1291 19.1291C18.2586 19.9997 17.2251 20.6902 16.0877 21.1614C14.9502 21.6325 13.7311 21.875 12.5 21.875C11.2689 21.875 10.0498 21.6325 8.91234 21.1614C7.77492 20.6902 6.74142 19.9997 5.87087 19.1291C5.00032 18.2586 4.30977 17.2251 3.83863 16.0877C3.36749 14.9502 3.125 13.7311 3.125 12.5C3.125 10.0136 4.11272 7.62903 5.87087 5.87087C7.62903 4.11272 10.0136 3.125 12.5 3.125C14.9864 3.125 17.371 4.11272 19.1291 5.87087C20.8873 7.62903 21.875 10.0136 21.875 12.5Z" stroke="#0D203C" stroke-width="2" stroke-linecap="round" stroke-linejoin="round"/>
</svg>
