<svg width="25" height="25" viewBox="0 0 25 25" fill="none" xmlns="http://www.w3.org/2000/svg">
<path d="M9.63542 22.9167L9.21875 19.5834C8.99306 19.4966 8.78021 19.3924 8.58021 19.2709C8.38021 19.1493 8.18507 19.0191 7.99479 18.8803L4.89583 20.1823L2.03125 15.2344L4.71354 13.2032C4.69618 13.0816 4.6875 12.9643 4.6875 12.8511V12.149C4.6875 12.0358 4.69618 11.9184 4.71354 11.7969L2.03125 9.76567L4.89583 4.81775L7.99479 6.11983C8.18576 5.98094 8.38542 5.85074 8.59375 5.72921C8.80208 5.60768 9.01042 5.50351 9.21875 5.41671L9.63542 2.08337H15.3646L15.7812 5.41671C16.0069 5.50351 16.2198 5.60768 16.4198 5.72921C16.6198 5.85074 16.8149 5.98094 17.0052 6.11983L20.1042 4.81775L22.9687 9.76567L20.2865 11.7969C20.3038 11.9184 20.3125 12.0358 20.3125 12.149V12.8511C20.3125 12.9643 20.2951 13.0816 20.2604 13.2032L22.9427 15.2344L20.0781 20.1823L17.0052 18.8803C16.8142 19.0191 16.6146 19.1493 16.4062 19.2709C16.1979 19.3924 15.9896 19.4966 15.7812 19.5834L15.3646 22.9167H9.63542ZM12.5521 16.1459C13.559 16.1459 14.4184 15.79 15.1302 15.0782C15.842 14.3664 16.1979 13.507 16.1979 12.5C16.1979 11.4931 15.842 10.6337 15.1302 9.92192C14.4184 9.21011 13.559 8.85421 12.5521 8.85421C11.5278 8.85421 10.6639 9.21011 9.96042 9.92192C9.25694 10.6337 8.90556 11.4931 8.90625 12.5C8.90625 13.507 9.25764 14.3664 9.96042 15.0782C10.6632 15.79 11.5271 16.1459 12.5521 16.1459Z" fill="#0D203C"/>
</svg>
