<svg width="25" height="25" viewBox="0 0 25 25" fill="none" xmlns="http://www.w3.org/2000/svg">
<path d="M9.63542 22.9167L9.21875 19.5833C8.99306 19.4965 8.78021 19.3924 8.58021 19.2708C8.38021 19.1493 8.18507 19.0191 7.99479 18.8802L4.89583 20.1823L2.03125 15.2344L4.71354 13.2031C4.69618 13.0816 4.6875 12.9642 4.6875 12.8511V12.149C4.6875 12.0358 4.69618 11.9184 4.71354 11.7969L2.03125 9.76564L4.89583 4.81772L7.99479 6.1198C8.18576 5.98091 8.38542 5.8507 8.59375 5.72918C8.80208 5.60765 9.01042 5.50348 9.21875 5.41668L9.63542 2.08334H15.3646L15.7812 5.41668C16.0069 5.50348 16.2198 5.60765 16.4198 5.72918C16.6198 5.8507 16.8149 5.98091 17.0052 6.1198L20.1042 4.81772L22.9687 9.76564L20.2865 11.7969C20.3038 11.9184 20.3125 12.0358 20.3125 12.149V12.8511C20.3125 12.9642 20.2951 13.0816 20.2604 13.2031L22.9427 15.2344L20.0781 20.1823L17.0052 18.8802C16.8142 19.0191 16.6146 19.1493 16.4062 19.2708C16.1979 19.3924 15.9896 19.4965 15.7812 19.5833L15.3646 22.9167H9.63542ZM12.5521 16.1458C13.559 16.1458 14.4184 15.7899 15.1302 15.0781C15.842 14.3663 16.1979 13.507 16.1979 12.5C16.1979 11.4931 15.842 10.6337 15.1302 9.92189C14.4184 9.21008 13.559 8.85418 12.5521 8.85418C11.5278 8.85418 10.6639 9.21008 9.96042 9.92189C9.25694 10.6337 8.90556 11.4931 8.90625 12.5C8.90625 13.507 9.25764 14.3663 9.96042 15.0781C10.6632 15.7899 11.5271 16.1458 12.5521 16.1458Z" fill="#0D203C"/>
</svg>
