<svg width="51" height="50" viewBox="0 0 51 50" fill="none" xmlns="http://www.w3.org/2000/svg">
<path d="M15.0833 31.25H19.25C19.25 33.5 22.1042 35.4167 25.5 35.4167C28.8958 35.4167 31.75 33.5 31.75 31.25C31.75 28.9583 29.5833 28.125 25 27.0208C20.5833 25.9167 15.0833 24.5417 15.0833 18.75C15.0833 15.0208 18.1458 11.8542 22.375 10.7917V6.25H28.625V10.7917C32.8542 11.8542 35.9167 15.0208 35.9167 18.75H31.75C31.75 16.5 28.8958 14.5833 25.5 14.5833C22.1042 14.5833 19.25 16.5 19.25 18.75C19.25 21.0417 21.4167 21.875 26 22.9792C30.4167 24.0833 35.9167 25.4583 35.9167 31.25C35.9167 34.9792 32.8542 38.1458 28.625 39.2083V43.75H22.375V39.2083C18.1458 38.1458 15.0833 34.9792 15.0833 31.25Z" fill="#324A6D"/>
</svg>
