<svg width="40" height="40" viewBox="0 0 40 40" fill="none" xmlns="http://www.w3.org/2000/svg">
<path d="M11.6666 25H15C15 26.8 17.2833 28.3333 20 28.3333C22.7166 28.3333 25 26.8 25 25C25 23.1667 23.2666 22.5 19.6 21.6167C16.0666 20.7333 11.6666 19.6333 11.6666 15C11.6666 12.0167 14.1166 9.48333 17.5 8.63333V5H22.5V8.63333C25.8833 9.48333 28.3333 12.0167 28.3333 15H25C25 13.2 22.7166 11.6667 20 11.6667C17.2833 11.6667 15 13.2 15 15C15 16.8333 16.7333 17.5 20.4 18.3833C23.9333 19.2667 28.3333 20.3667 28.3333 25C28.3333 27.9833 25.8833 30.5167 22.5 31.3667V35H17.5V31.3667C14.1166 30.5167 11.6666 27.9833 11.6666 25Z" fill="#324A6D"/>
</svg>
