<svg width="40" height="40" viewBox="0 0 40 40" fill="none" xmlns="http://www.w3.org/2000/svg">
<path d="M11.6667 25H15.0001C15.0001 26.8 17.2834 28.3333 20.0001 28.3333C22.7167 28.3333 25.0001 26.8 25.0001 25C25.0001 23.1667 23.2667 22.5 19.6001 21.6167C16.0667 20.7333 11.6667 19.6333 11.6667 15C11.6667 12.0167 14.1167 9.48333 17.5001 8.63333V5H22.5001V8.63333C25.8834 9.48333 28.3334 12.0167 28.3334 15H25.0001C25.0001 13.2 22.7167 11.6667 20.0001 11.6667C17.2834 11.6667 15.0001 13.2 15.0001 15C15.0001 16.8333 16.7334 17.5 20.4001 18.3833C23.9334 19.2667 28.3334 20.3667 28.3334 25C28.3334 27.9833 25.8834 30.5167 22.5001 31.3667V35H17.5001V31.3667C14.1167 30.5167 11.6667 27.9833 11.6667 25Z" fill="#324A6D"/>
</svg>
