<svg width="25" height="25" viewBox="0 0 25 25" fill="none" xmlns="http://www.w3.org/2000/svg">
<path d="M10.4167 17.7084V14.5834H3.125V10.4167H10.4167V7.29171L15.625 12.5L10.4167 17.7084ZM10.4167 2.08337H19.7917C20.3442 2.08337 20.8741 2.30287 21.2648 2.69357C21.6555 3.08427 21.875 3.61417 21.875 4.16671V20.8334C21.875 21.3859 21.6555 21.9158 21.2648 22.3065C20.8741 22.6972 20.3442 22.9167 19.7917 22.9167H10.4167C9.86413 22.9167 9.33423 22.6972 8.94353 22.3065C8.55283 21.9158 8.33333 21.3859 8.33333 20.8334V18.75H10.4167V20.8334H19.7917V4.16671H10.4167V6.25004H8.33333V4.16671C8.33333 3.61417 8.55283 3.08427 8.94353 2.69357C9.33423 2.30287 9.86413 2.08337 10.4167 2.08337Z" fill="#0D203C"/>
</svg>
