<svg width="25" height="25" viewBox="0 0 25 25" fill="none" xmlns="http://www.w3.org/2000/svg">
<path d="M10.4167 17.7083V14.5833H3.125V10.4167H10.4167V7.29166L15.625 12.5L10.4167 17.7083ZM10.4167 2.08333H19.7917C20.3442 2.08333 20.8741 2.30282 21.2648 2.69352C21.6555 3.08422 21.875 3.61413 21.875 4.16666V20.8333C21.875 21.3859 21.6555 21.9158 21.2648 22.3065C20.8741 22.6972 20.3442 22.9167 19.7917 22.9167H10.4167C9.86413 22.9167 9.33423 22.6972 8.94353 22.3065C8.55283 21.9158 8.33333 21.3859 8.33333 20.8333V18.75H10.4167V20.8333H19.7917V4.16666H10.4167V6.25H8.33333V4.16666C8.33333 3.61413 8.55283 3.08422 8.94353 2.69352C9.33423 2.30282 9.86413 2.08333 10.4167 2.08333Z" fill="#0D203C"/>
</svg>
