<svg width="25" height="25" viewBox="0 0 25 25" fill="none" xmlns="http://www.w3.org/2000/svg">
<path d="M10.4167 17.7083V14.5833H3.125V10.4167H10.4167V7.29168L15.625 12.5L10.4167 17.7083ZM10.4167 2.08334H19.7917C20.3442 2.08334 20.8741 2.30284 21.2648 2.69354C21.6555 3.08424 21.875 3.61414 21.875 4.16668V20.8333C21.875 21.3859 21.6555 21.9158 21.2648 22.3065C20.8741 22.6972 20.3442 22.9167 19.7917 22.9167H10.4167C9.86413 22.9167 9.33423 22.6972 8.94353 22.3065C8.55283 21.9158 8.33333 21.3859 8.33333 20.8333V18.75H10.4167V20.8333H19.7917V4.16668H10.4167V6.25001H8.33333V4.16668C8.33333 3.61414 8.55283 3.08424 8.94353 2.69354C9.33423 2.30284 9.86413 2.08334 10.4167 2.08334Z" fill="#0D203C"/>
</svg>
