<svg width="25" height="25" viewBox="0 0 25 25" fill="none" xmlns="http://www.w3.org/2000/svg">
<path d="M19.7917 6.25H17.7083C17.7083 3.33333 15.4167 1.04166 12.5 1.04166C9.58333 1.04166 7.29167 3.33333 7.29167 6.25H5.20833C4.0625 6.25 3.125 7.1875 3.125 8.33333V20.8333C3.125 21.9792 4.0625 22.9167 5.20833 22.9167H19.7917C20.9375 22.9167 21.875 21.9792 21.875 20.8333V8.33333C21.875 7.1875 20.9375 6.25 19.7917 6.25ZM12.5 3.125C14.2708 3.125 15.625 4.47916 15.625 6.25H9.375C9.375 4.47916 10.7292 3.125 12.5 3.125ZM19.7917 20.8333H5.20833V8.33333H19.7917V20.8333ZM12.5 12.5C10.7292 12.5 9.375 11.1458 9.375 9.375H7.29167C7.29167 12.2917 9.58333 14.5833 12.5 14.5833C15.4167 14.5833 17.7083 12.2917 17.7083 9.375H15.625C15.625 11.1458 14.2708 12.5 12.5 12.5Z" fill="#0D203C"/>
</svg>
