<svg width="25" height="25" viewBox="0 0 25 25" fill="none" xmlns="http://www.w3.org/2000/svg">
<path d="M19.7917 6.24996H17.7083C17.7083 3.33329 15.4167 1.04163 12.5 1.04163C9.58333 1.04163 7.29167 3.33329 7.29167 6.24996H5.20833C4.0625 6.24996 3.125 7.18746 3.125 8.33329V20.8333C3.125 21.9791 4.0625 22.9166 5.20833 22.9166H19.7917C20.9375 22.9166 21.875 21.9791 21.875 20.8333V8.33329C21.875 7.18746 20.9375 6.24996 19.7917 6.24996ZM12.5 3.12496C14.2708 3.12496 15.625 4.47913 15.625 6.24996H9.375C9.375 4.47913 10.7292 3.12496 12.5 3.12496ZM19.7917 20.8333H5.20833V8.33329H19.7917V20.8333ZM12.5 12.5C10.7292 12.5 9.375 11.1458 9.375 9.37496H7.29167C7.29167 12.2916 9.58333 14.5833 12.5 14.5833C15.4167 14.5833 17.7083 12.2916 17.7083 9.37496H15.625C15.625 11.1458 14.2708 12.5 12.5 12.5Z" fill="#0D203C"/>
</svg>
