<svg width="25" height="25" viewBox="0 0 25 25" fill="none" xmlns="http://www.w3.org/2000/svg">
<path d="M16.6666 17.7083V19.7917H2.08331V17.7083C2.08331 17.7083 2.08331 13.5417 9.37498 13.5417C16.6666 13.5417 16.6666 17.7083 16.6666 17.7083ZM13.0208 7.8125C13.0208 7.09142 12.807 6.38654 12.4064 5.78698C12.0058 5.18743 11.4364 4.72013 10.7702 4.44419C10.104 4.16824 9.37094 4.09604 8.66371 4.23672C7.95649 4.37739 7.30687 4.72463 6.79699 5.23451C6.28711 5.74438 5.93988 6.39401 5.7992 7.10123C5.65853 7.80845 5.73072 8.54151 6.00667 9.2077C6.28261 9.87389 6.74991 10.4433 7.34946 10.8439C7.94902 11.2445 8.6539 11.4583 9.37498 11.4583C10.3419 11.4583 11.2692 11.0742 11.953 10.3905C12.6367 9.70677 13.0208 8.77943 13.0208 7.8125ZM16.6041 13.5417C17.2445 14.0372 17.7685 14.6671 18.1392 15.387C18.51 16.1069 18.7184 16.8992 18.75 17.7083V19.7917H22.9166V17.7083C22.9166 17.7083 22.9166 13.9271 16.6041 13.5417ZM15.625 4.16667C14.908 4.16267 14.2068 4.37704 13.6146 4.78125C14.2473 5.66535 14.5875 6.7253 14.5875 7.8125C14.5875 8.8997 14.2473 9.95965 13.6146 10.8437C14.2068 11.248 14.908 11.4623 15.625 11.4583C16.5919 11.4583 17.5192 11.0742 18.203 10.3905C18.8867 9.70677 19.2708 8.77943 19.2708 7.8125C19.2708 6.84556 18.8867 5.91823 18.203 5.23451C17.5192 4.55078 16.5919 4.16667 15.625 4.16667Z" fill="#0D203C"/>
</svg>
