<svg width="15" height="15" viewBox="0 0 15 15" fill="none" xmlns="http://www.w3.org/2000/svg">
<g clip-path="url(#clip0_55_212)">
<path fill-rule="evenodd" clip-rule="evenodd" d="M8.16256 10.0375C7.98678 10.2131 7.7485 10.3117 7.50006 10.3117C7.25162 10.3117 7.01334 10.2131 6.83756 10.0375L3.30131 6.50251C3.12552 6.32664 3.0268 6.08813 3.02686 5.83947C3.02691 5.59081 3.12575 5.35236 3.30162 5.17657C3.47749 5.00078 3.71599 4.90206 3.96466 4.90211C4.21332 4.90217 4.45177 5.00101 4.62756 5.17688L7.50006 8.04938L10.3726 5.17688C10.5493 5.00602 10.7861 4.91142 11.0319 4.91344C11.2777 4.91545 11.5129 5.01394 11.6868 5.18768C11.8607 5.36142 11.9594 5.59651 11.9616 5.84232C11.9639 6.08813 11.8695 6.32499 11.6988 6.50188L8.16319 10.0381L8.16256 10.0375Z" fill="#0D203C"/>
</g>
<defs>
<clipPath id="clip0_55_212">
<rect width="15" height="15" fill="white"/>
</clipPath>
</defs>
</svg>
