<svg width="15" height="16" viewBox="0 0 15 16" fill="none" xmlns="http://www.w3.org/2000/svg">
<g clip-path="url(#clip0_55_198)">
<path fill-rule="evenodd" clip-rule="evenodd" d="M8.16256 10.5375C7.98678 10.7131 7.7485 10.8117 7.50006 10.8117C7.25162 10.8117 7.01334 10.7131 6.83756 10.5375L3.30131 7.00251C3.12552 6.82664 3.0268 6.58813 3.02686 6.33947C3.02691 6.09081 3.12575 5.85236 3.30162 5.67657C3.47749 5.50078 3.71599 5.40206 3.96466 5.40211C4.21332 5.40217 4.45177 5.50101 4.62756 5.67688L7.50006 8.54938L10.3726 5.67688C10.5493 5.50602 10.7861 5.41142 11.0319 5.41344C11.2777 5.41545 11.5129 5.51394 11.6868 5.68768C11.8607 5.86142 11.9594 6.09651 11.9616 6.34232C11.9639 6.58813 11.8695 6.82499 11.6988 7.00188L8.16319 10.5381L8.16256 10.5375Z" fill="#0D203C"/>
</g>
<defs>
<clipPath id="clip0_55_198">
<rect width="15" height="15" fill="white" transform="translate(0 0.5)"/>
</clipPath>
</defs>
</svg>
