<svg width="15" height="15" viewBox="0 0 15 15" fill="none" xmlns="http://www.w3.org/2000/svg">
<g clip-path="url(#clip0_55_221)">
<path fill-rule="evenodd" clip-rule="evenodd" d="M8.16256 10.0375C7.98678 10.2131 7.7485 10.3117 7.50006 10.3117C7.25162 10.3117 7.01334 10.2131 6.83756 10.0375L3.30131 6.50249C3.12552 6.32662 3.0268 6.08812 3.02686 5.83946C3.02691 5.5908 3.12575 5.35234 3.30162 5.17655C3.47749 5.00077 3.71599 4.90204 3.96466 4.9021C4.21332 4.90216 4.45177 5.00099 4.62756 5.17687L7.50006 8.04937L10.3726 5.17687C10.5493 5.00601 10.7861 4.9114 11.0319 4.91342C11.2777 4.91544 11.5129 5.01392 11.6868 5.18766C11.8607 5.3614 11.9594 5.59649 11.9616 5.8423C11.9639 6.08811 11.8695 6.32497 11.6988 6.50187L8.16319 10.0381L8.16256 10.0375Z" fill="#0D203C"/>
</g>
<defs>
<clipPath id="clip0_55_221">
<rect width="15" height="15" fill="white"/>
</clipPath>
</defs>
</svg>
