<svg width="15" height="15" viewBox="0 0 15 15" fill="none" xmlns="http://www.w3.org/2000/svg">
<g clip-path="url(#clip0_39_923)">
<path fill-rule="evenodd" clip-rule="evenodd" d="M8.1625 10.0375C7.98672 10.2131 7.74844 10.3117 7.5 10.3117C7.25156 10.3117 7.01328 10.2131 6.8375 10.0375L3.30125 6.50249C3.12546 6.32662 3.02674 6.08812 3.02679 5.83946C3.02685 5.5908 3.12569 5.35234 3.30156 5.17655C3.47743 5.00077 3.71593 4.90204 3.96459 4.9021C4.21326 4.90216 4.45171 5.00099 4.6275 5.17687L7.5 8.04937L10.3725 5.17687C10.5492 5.00601 10.786 4.9114 11.0318 4.91342C11.2776 4.91544 11.5128 5.01392 11.6867 5.18766C11.8606 5.3614 11.9593 5.59649 11.9616 5.8423C11.9638 6.08811 11.8694 6.32497 11.6988 6.50187L8.16312 10.0381L8.1625 10.0375Z" fill="#0D203C"/>
</g>
<defs>
<clipPath id="clip0_39_923">
<rect width="15" height="15" fill="white"/>
</clipPath>
</defs>
</svg>
