<svg width="15" height="15" viewBox="0 0 15 15" fill="none" xmlns="http://www.w3.org/2000/svg">
<g clip-path="url(#clip0_5_201)">
<path fill-rule="evenodd" clip-rule="evenodd" d="M8.1625 10.0375C7.98672 10.2131 7.74844 10.3117 7.5 10.3117C7.25156 10.3117 7.01328 10.2131 6.8375 10.0375L3.30125 6.50251C3.12546 6.32664 3.02674 6.08813 3.02679 5.83947C3.02685 5.59081 3.12569 5.35236 3.30156 5.17657C3.47743 5.00078 3.71593 4.90206 3.96459 4.90211C4.21326 4.90217 4.45171 5.00101 4.6275 5.17688L7.5 8.04938L10.3725 5.17688C10.5492 5.00602 10.786 4.91142 11.0318 4.91344C11.2776 4.91545 11.5128 5.01394 11.6867 5.18768C11.8606 5.36142 11.9593 5.59651 11.9616 5.84232C11.9638 6.08813 11.8694 6.32499 11.6988 6.50188L8.16312 10.0381L8.1625 10.0375Z" fill="#0D203C"/>
</g>
<defs>
<clipPath id="clip0_5_201">
<rect width="15" height="15" fill="white"/>
</clipPath>
</defs>
</svg>
