<svg width="25" height="25" viewBox="0 0 25 25" fill="none" xmlns="http://www.w3.org/2000/svg">
<path d="M10.5687 3.38335C10.7243 2.99867 10.9913 2.66924 11.3354 2.43728C11.6794 2.20531 12.0849 2.08139 12.4999 2.08139C12.9149 2.08139 13.3204 2.20531 13.6645 2.43728C14.0086 2.66924 14.2755 2.99867 14.4312 3.38335C15.9715 3.80697 17.3302 4.72455 18.2986 5.99515C19.267 7.26576 19.7915 8.81912 19.7916 10.4167V15.3094L21.6999 18.1719C21.8046 18.3288 21.8647 18.5111 21.8738 18.6995C21.883 18.8878 21.8408 19.0752 21.7519 19.2414C21.6629 19.4077 21.5305 19.5467 21.3687 19.6436C21.2069 19.7405 21.0218 19.7917 20.8332 19.7917H16.1093C15.9839 20.6595 15.55 21.4531 14.8871 22.027C14.2242 22.601 13.3767 22.9169 12.4999 22.9169C11.6231 22.9169 10.7756 22.601 10.1127 22.027C9.44985 21.4531 9.01596 20.6595 8.89054 19.7917H4.16658C3.97799 19.7917 3.79294 19.7405 3.63115 19.6436C3.46937 19.5467 3.33693 19.4077 3.24796 19.2414C3.15899 19.0752 3.11683 18.8878 3.12598 18.6995C3.13513 18.5111 3.19525 18.3288 3.29991 18.1719L5.20825 15.3094V10.4167C5.20825 7.05835 7.47908 4.22918 10.5687 3.38335ZM11.027 19.7917C11.1346 20.0965 11.3341 20.3605 11.598 20.5472C11.8619 20.7339 12.1772 20.8342 12.5004 20.8342C12.8237 20.8342 13.139 20.7339 13.4029 20.5472C13.6668 20.3605 13.8663 20.0965 13.9739 19.7917H11.026H11.027ZM12.4999 5.20835C11.1186 5.20835 9.79382 5.75708 8.81706 6.73383C7.84031 7.71058 7.29158 9.03534 7.29158 10.4167V15.625C7.29162 15.8308 7.23073 16.0319 7.11658 16.2031L6.11345 17.7083H18.8853L17.8822 16.2031C17.7684 16.0318 17.7079 15.8307 17.7082 15.625V10.4167C17.7082 9.03534 17.1595 7.71058 16.1828 6.73383C15.206 5.75708 13.8812 5.20835 12.4999 5.20835Z" fill="#0D203C"/>
</svg>
