<svg width="41" height="40" viewBox="0 0 41 40" fill="none" xmlns="http://www.w3.org/2000/svg">
<circle cx="20.9885" cy="20" r="19.75" stroke="#324A6D" stroke-width="0.5"/>
<path d="M18.8553 13.2949C18.9798 12.9872 19.1934 12.7236 19.4686 12.538C19.7439 12.3525 20.0683 12.2533 20.4003 12.2533C20.7322 12.2533 21.0567 12.3525 21.3319 12.538C21.6072 12.7236 21.8208 12.9872 21.9453 13.2949C23.1776 13.6338 24.2645 14.3679 25.0392 15.3843C25.8139 16.4008 26.2336 17.6435 26.2336 18.9216V22.8357L27.7603 25.1257C27.844 25.2512 27.8921 25.3971 27.8994 25.5478C27.9067 25.6985 27.873 25.8483 27.8018 25.9814C27.7307 26.1144 27.6247 26.2256 27.4953 26.3031C27.3659 26.3806 27.2178 26.4216 27.0669 26.4216H23.2878C23.1874 27.1158 22.8403 27.7507 22.31 28.2098C21.7797 28.669 21.1017 28.9217 20.4003 28.9217C19.6988 28.9217 19.0208 28.669 18.4905 28.2098C17.9602 27.7507 17.6131 27.1158 17.5128 26.4216H13.7336C13.5827 26.4216 13.4347 26.3806 13.3053 26.3031C13.1758 26.2256 13.0699 26.1144 12.9987 25.9814C12.9275 25.8483 12.8938 25.6985 12.9011 25.5478C12.9084 25.3971 12.9565 25.2512 13.0403 25.1257L14.5669 22.8357V18.9216C14.5669 16.2349 16.3836 13.9716 18.8553 13.2949ZM19.2219 26.4216C19.308 26.6654 19.4676 26.8766 19.6787 27.026C19.8898 27.1754 20.1421 27.2556 20.4007 27.2556C20.6593 27.2556 20.9116 27.1754 21.1227 27.026C21.3338 26.8766 21.4934 26.6654 21.5794 26.4216H19.2211H19.2219ZM20.4003 14.7549C19.2952 14.7549 18.2354 15.1939 17.454 15.9753C16.6726 16.7567 16.2336 17.8165 16.2336 18.9216V23.0882C16.2336 23.2528 16.1849 23.4138 16.0936 23.5507L15.2911 24.7549H25.5086L24.7061 23.5507C24.6151 23.4137 24.5667 23.2527 24.5669 23.0882V18.9216C24.5669 17.8165 24.128 16.7567 23.3465 15.9753C22.5651 15.1939 21.5053 14.7549 20.4003 14.7549Z" fill="#324A6D"/>
</svg>
