<svg width="25" height="25" viewBox="0 0 25 25" fill="none" xmlns="http://www.w3.org/2000/svg">
<path d="M23.002 14.6689C22.3711 16.7285 21.1067 18.5366 19.3887 19.8359C17.8804 20.9711 16.0855 21.6635 14.2055 21.8353C12.3256 22.0071 10.4349 21.6515 8.74583 20.8085C7.05673 19.9655 5.63601 18.6683 4.64315 17.0627C3.65029 15.4571 3.12459 13.6065 3.12505 11.7187C3.11826 9.51528 3.83458 7.37044 5.16411 5.61327C6.46346 3.89529 8.27156 2.63089 10.3311 1.99999C10.4668 1.95819 10.6114 1.95419 10.7493 1.98841C10.8871 2.02263 11.013 2.09379 11.1134 2.19422C11.2139 2.29465 11.285 2.42055 11.3192 2.5584C11.3535 2.69624 11.3495 2.84081 11.3077 2.97655C10.8573 4.46623 10.8196 6.05018 11.1984 7.55962C11.5773 9.06907 12.3585 10.4474 13.459 11.5479C14.5594 12.6483 15.9378 13.4296 17.4473 13.8085C18.9567 14.1873 20.5406 14.1496 22.0303 13.6992C22.1661 13.6574 22.3106 13.6534 22.4485 13.6876C22.5863 13.7219 22.7122 13.793 22.8127 13.8934C22.9131 13.9939 22.9842 14.1198 23.0185 14.2576C23.0527 14.3955 23.0487 14.54 23.0069 14.6758L23.002 14.6689Z" fill="#0D203C"/>
</svg>
