<svg width="25" height="25" viewBox="0 0 25 25" fill="none" xmlns="http://www.w3.org/2000/svg">
<path fill-rule="evenodd" clip-rule="evenodd" d="M7.50008 1.66666C7.7211 1.66666 7.93306 1.75445 8.08934 1.91073C8.24562 2.06701 8.33342 2.27898 8.33342 2.49999V3.33332H16.6667V2.49999C16.6667 2.27898 16.7545 2.06701 16.9108 1.91073C17.0671 1.75445 17.2791 1.66666 17.5001 1.66666C17.7211 1.66666 17.9331 1.75445 18.0893 1.91073C18.2456 2.06701 18.3334 2.27898 18.3334 2.49999V3.33332H20.8334C21.4965 3.33332 22.1323 3.59672 22.6012 4.06556C23.07 4.5344 23.3334 5.17028 23.3334 5.83332V20.8333C23.3334 21.4964 23.07 22.1322 22.6012 22.6011C22.1323 23.0699 21.4965 23.3333 20.8334 23.3333H4.16675C3.50371 23.3333 2.86782 23.0699 2.39898 22.6011C1.93014 22.1322 1.66675 21.4964 1.66675 20.8333V5.83332C1.66675 5.17028 1.93014 4.5344 2.39898 4.06556C2.86782 3.59672 3.50371 3.33332 4.16675 3.33332H6.66675V2.49999C6.66675 2.27898 6.75455 2.06701 6.91083 1.91073C7.06711 1.75445 7.27907 1.66666 7.50008 1.66666ZM16.6667 4.99999V5.83332C16.6667 6.05434 16.7545 6.2663 16.9108 6.42258C17.0671 6.57886 17.2791 6.66666 17.5001 6.66666C17.7211 6.66666 17.9331 6.57886 18.0893 6.42258C18.2456 6.2663 18.3334 6.05434 18.3334 5.83332V4.99999H20.8334C21.0544 4.99999 21.2664 5.08779 21.4227 5.24407C21.579 5.40035 21.6667 5.61231 21.6667 5.83332V8.33332H3.33341V5.83332C3.33341 5.61231 3.42121 5.40035 3.57749 5.24407C3.73377 5.08779 3.94573 4.99999 4.16675 4.99999H6.66675V5.83332C6.66675 6.05434 6.75455 6.2663 6.91083 6.42258C7.06711 6.57886 7.27907 6.66666 7.50008 6.66666C7.7211 6.66666 7.93306 6.57886 8.08934 6.42258C8.24562 6.2663 8.33342 6.05434 8.33342 5.83332V4.99999H16.6667ZM3.33341 9.99999V20.8333C3.33341 21.0543 3.42121 21.2663 3.57749 21.4226C3.73377 21.5789 3.94573 21.6667 4.16675 21.6667H20.8334C21.0544 21.6667 21.2664 21.5789 21.4227 21.4226C21.579 21.2663 21.6667 21.0543 21.6667 20.8333V9.99999H3.33341ZM11.6667 12.5C11.6667 12.279 11.7545 12.067 11.9108 11.9107C12.0671 11.7545 12.2791 11.6667 12.5001 11.6667C12.7211 11.6667 12.9331 11.7545 13.0893 11.9107C13.2456 12.067 13.3334 12.279 13.3334 12.5C13.3334 12.721 13.2456 12.933 13.0893 13.0892C12.9331 13.2455 12.7211 13.3333 12.5001 13.3333C12.2791 13.3333 12.0671 13.2455 11.9108 13.0892C11.7545 12.933 11.6667 12.721 11.6667 12.5ZM15.8334 11.6667C15.6124 11.6667 15.4004 11.7545 15.2442 11.9107C15.0879 12.067 15.0001 12.279 15.0001 12.5C15.0001 12.721 15.0879 12.933 15.2442 13.0892C15.4004 13.2455 15.6124 13.3333 15.8334 13.3333C16.0544 13.3333 16.2664 13.2455 16.4227 13.0892C16.579 12.933 16.6667 12.721 16.6667 12.5C16.6667 12.279 16.579 12.067 16.4227 11.9107C16.2664 11.7545 16.0544 11.6667 15.8334 11.6667ZM18.3334 12.5C18.3334 12.279 18.4212 12.067 18.5775 11.9107C18.7338 11.7545 18.9457 11.6667 19.1667 11.6667C19.3878 11.6667 19.5997 11.7545 19.756 11.9107C19.9123 12.067 20.0001 12.279 20.0001 12.5C20.0001 12.721 19.9123 12.933 19.756 13.0892C19.5997 13.2455 19.3878 13.3333 19.1667 13.3333C18.9457 13.3333 18.7338 13.2455 18.5775 13.0892C18.4212 12.933 18.3334 12.721 18.3334 12.5ZM19.1667 15C18.9457 15 18.7338 15.0878 18.5775 15.2441C18.4212 15.4003 18.3334 15.6123 18.3334 15.8333C18.3334 16.0543 18.4212 16.2663 18.5775 16.4226C18.7338 16.5789 18.9457 16.6667 19.1667 16.6667C19.3878 16.6667 19.5997 16.5789 19.756 16.4226C19.9123 16.2663 20.0001 16.0543 20.0001 15.8333C20.0001 15.6123 19.9123 15.4003 19.756 15.2441C19.5997 15.0878 19.3878 15 19.1667 15ZM15.0001 15.8333C15.0001 15.6123 15.0879 15.4003 15.2442 15.2441C15.4004 15.0878 15.6124 15 15.8334 15C16.0544 15 16.2664 15.0878 16.4227 15.2441C16.579 15.4003 16.6667 15.6123 16.6667 15.8333C16.6667 16.0543 16.579 16.2663 16.4227 16.4226C16.2664 16.5789 16.0544 16.6667 15.8334 16.6667C15.6124 16.6667 15.4004 16.5789 15.2442 16.4226C15.0879 16.2663 15.0001 16.0543 15.0001 15.8333ZM12.5001 15C12.2791 15 12.0671 15.0878 11.9108 15.2441C11.7545 15.4003 11.6667 15.6123 11.6667 15.8333C11.6667 16.0543 11.7545 16.2663 11.9108 16.4226C12.0671 16.5789 12.2791 16.6667 12.5001 16.6667C12.7211 16.6667 12.9331 16.5789 13.0893 16.4226C13.2456 16.2663 13.3334 16.0543 13.3334 15.8333C13.3334 15.6123 13.2456 15.4003 13.0893 15.2441C12.9331 15.0878 12.7211 15 12.5001 15ZM8.33342 15.8333C8.33342 15.6123 8.42121 15.4003 8.57749 15.2441C8.73377 15.0878 8.94573 15 9.16675 15C9.38776 15 9.59972 15.0878 9.756 15.2441C9.91228 15.4003 10.0001 15.6123 10.0001 15.8333C10.0001 16.0543 9.91228 16.2663 9.756 16.4226C9.59972 16.5789 9.38776 16.6667 9.16675 16.6667C8.94573 16.6667 8.73377 16.5789 8.57749 16.4226C8.42121 16.2663 8.33342 16.0543 8.33342 15.8333ZM5.83342 15C5.6124 15 5.40044 15.0878 5.24416 15.2441C5.08788 15.4003 5.00008 15.6123 5.00008 15.8333C5.00008 16.0543 5.08788 16.2663 5.24416 16.4226C5.40044 16.5789 5.6124 16.6667 5.83342 16.6667C6.05443 16.6667 6.26639 16.5789 6.42267 16.4226C6.57895 16.2663 6.66675 16.0543 6.66675 15.8333C6.66675 15.6123 6.57895 15.4003 6.42267 15.2441C6.26639 15.0878 6.05443 15 5.83342 15ZM5.00008 19.1667C5.00008 18.9456 5.08788 18.7337 5.24416 18.5774C5.40044 18.4211 5.6124 18.3333 5.83342 18.3333C6.05443 18.3333 6.26639 18.4211 6.42267 18.5774C6.57895 18.7337 6.66675 18.9456 6.66675 19.1667C6.66675 19.3877 6.57895 19.5996 6.42267 19.7559C6.26639 19.9122 6.05443 20 5.83342 20C5.6124 20 5.40044 19.9122 5.24416 19.7559C5.08788 19.5996 5.00008 19.3877 5.00008 19.1667ZM9.16675 18.3333C8.94573 18.3333 8.73377 18.4211 8.57749 18.5774C8.42121 18.7337 8.33342 18.9456 8.33342 19.1667C8.33342 19.3877 8.42121 19.5996 8.57749 19.7559C8.73377 19.9122 8.94573 20 9.16675 20C9.38776 20 9.59972 19.9122 9.756 19.7559C9.91228 19.5996 10.0001 19.3877 10.0001 19.1667C10.0001 18.9456 9.91228 18.7337 9.756 18.5774C9.59972 18.4211 9.38776 18.3333 9.16675 18.3333ZM11.6667 19.1667C11.6667 18.9456 11.7545 18.7337 11.9108 18.5774C12.0671 18.4211 12.2791 18.3333 12.5001 18.3333C12.7211 18.3333 12.9331 18.4211 13.0893 18.5774C13.2456 18.7337 13.3334 18.9456 13.3334 19.1667C13.3334 19.3877 13.2456 19.5996 13.0893 19.7559C12.9331 19.9122 12.7211 20 12.5001 20C12.2791 20 12.0671 19.9122 11.9108 19.7559C11.7545 19.5996 11.6667 19.3877 11.6667 19.1667ZM15.8334 18.3333C15.6124 18.3333 15.4004 18.4211 15.2442 18.5774C15.0879 18.7337 15.0001 18.9456 15.0001 19.1667C15.0001 19.3877 15.0879 19.5996 15.2442 19.7559C15.4004 19.9122 15.6124 20 15.8334 20C16.0544 20 16.2664 19.9122 16.4227 19.7559C16.579 19.5996 16.6667 19.3877 16.6667 19.1667C16.6667 18.9456 16.579 18.7337 16.4227 18.5774C16.2664 18.4211 16.0544 18.3333 15.8334 18.3333Z" fill="#0D203C"/>
</svg>
