<svg width="41" height="40" viewBox="0 0 41 40" fill="none" xmlns="http://www.w3.org/2000/svg">
<path d="M3.83325 20C3.83325 13.715 3.83325 10.5717 5.78659 8.61999C7.73825 6.66666 10.8816 6.66666 17.1666 6.66666H23.8333C30.1183 6.66666 33.2616 6.66666 35.2133 8.61999C37.1666 10.5717 37.1666 13.715 37.1666 20V23.3333C37.1666 29.6183 37.1666 32.7617 35.2133 34.7133C33.2616 36.6667 30.1183 36.6667 23.8333 36.6667H17.1666C10.8816 36.6667 7.73825 36.6667 5.78659 34.7133C3.83325 32.7617 3.83325 29.6183 3.83325 23.3333V20Z" stroke="#324A6D" stroke-width="1.5"/>
<path opacity="0.5" d="M12.1665 6.66666V4.16666M28.8332 6.66666V4.16666M4.6665 15H36.3332" stroke="#324A6D" stroke-width="1.5" stroke-linecap="round"/>
<path d="M30.5 28.3333C30.5 28.7754 30.3244 29.1993 30.0118 29.5118C29.6993 29.8244 29.2754 30 28.8333 30C28.3913 30 27.9674 29.8244 27.6548 29.5118C27.3423 29.1993 27.1667 28.7754 27.1667 28.3333C27.1667 27.8913 27.3423 27.4674 27.6548 27.1548C27.9674 26.8423 28.3913 26.6667 28.8333 26.6667C29.2754 26.6667 29.6993 26.8423 30.0118 27.1548C30.3244 27.4674 30.5 27.8913 30.5 28.3333ZM30.5 21.6667C30.5 22.1087 30.3244 22.5326 30.0118 22.8452C29.6993 23.1577 29.2754 23.3333 28.8333 23.3333C28.3913 23.3333 27.9674 23.1577 27.6548 22.8452C27.3423 22.5326 27.1667 22.1087 27.1667 21.6667C27.1667 21.2246 27.3423 20.8007 27.6548 20.4882C27.9674 20.1756 28.3913 20 28.8333 20C29.2754 20 29.6993 20.1756 30.0118 20.4882C30.3244 20.8007 30.5 21.2246 30.5 21.6667ZM22.1667 28.3333C22.1667 28.7754 21.9911 29.1993 21.6785 29.5118C21.3659 29.8244 20.942 30 20.5 30C20.058 30 19.634 29.8244 19.3215 29.5118C19.0089 29.1993 18.8333 28.7754 18.8333 28.3333C18.8333 27.8913 19.0089 27.4674 19.3215 27.1548C19.634 26.8423 20.058 26.6667 20.5 26.6667C20.942 26.6667 21.3659 26.8423 21.6785 27.1548C21.9911 27.4674 22.1667 27.8913 22.1667 28.3333ZM22.1667 21.6667C22.1667 22.1087 21.9911 22.5326 21.6785 22.8452C21.3659 23.1577 20.942 23.3333 20.5 23.3333C20.058 23.3333 19.634 23.1577 19.3215 22.8452C19.0089 22.5326 18.8333 22.1087 18.8333 21.6667C18.8333 21.2246 19.0089 20.8007 19.3215 20.4882C19.634 20.1756 20.058 20 20.5 20C20.942 20 21.3659 20.1756 21.6785 20.4882C21.9911 20.8007 22.1667 21.2246 22.1667 21.6667ZM13.8333 28.3333C13.8333 28.7754 13.6577 29.1993 13.3452 29.5118C13.0326 29.8244 12.6087 30 12.1667 30C11.7246 30 11.3007 29.8244 10.9882 29.5118C10.6756 29.1993 10.5 28.7754 10.5 28.3333C10.5 27.8913 10.6756 27.4674 10.9882 27.1548C11.3007 26.8423 11.7246 26.6667 12.1667 26.6667C12.6087 26.6667 13.0326 26.8423 13.3452 27.1548C13.6577 27.4674 13.8333 27.8913 13.8333 28.3333ZM13.8333 21.6667C13.8333 22.1087 13.6577 22.5326 13.3452 22.8452C13.0326 23.1577 12.6087 23.3333 12.1667 23.3333C11.7246 23.3333 11.3007 23.1577 10.9882 22.8452C10.6756 22.5326 10.5 22.1087 10.5 21.6667C10.5 21.2246 10.6756 20.8007 10.9882 20.4882C11.3007 20.1756 11.7246 20 12.1667 20C12.6087 20 13.0326 20.1756 13.3452 20.4882C13.6577 20.8007 13.8333 21.2246 13.8333 21.6667Z" fill="#324A6D"/>
</svg>
