<svg width="51" height="50" viewBox="0 0 51 50" fill="none" xmlns="http://www.w3.org/2000/svg">
<path d="M4.66666 25C4.66666 17.1437 4.66666 13.2146 7.10832 10.775C9.54791 8.33331 13.4771 8.33331 21.3333 8.33331H29.6667C37.5229 8.33331 41.4521 8.33331 43.8917 10.775C46.3333 13.2146 46.3333 17.1437 46.3333 25V29.1666C46.3333 37.0229 46.3333 40.9521 43.8917 43.3916C41.4521 45.8333 37.5229 45.8333 29.6667 45.8333H21.3333C13.4771 45.8333 9.54791 45.8333 7.10832 43.3916C4.66666 40.9521 4.66666 37.0229 4.66666 29.1666V25Z" stroke="#324A6D" stroke-width="1.5"/>
<path opacity="0.5" d="M15.0833 8.33331V5.20831M35.9166 8.33331V5.20831M5.70831 18.75H45.2916" stroke="#324A6D" stroke-width="1.5" stroke-linecap="round"/>
<path d="M38 35.4167C38 35.9692 37.7805 36.4991 37.3898 36.8898C36.9991 37.2805 36.4692 37.5 35.9167 37.5C35.3641 37.5 34.8342 37.2805 34.4435 36.8898C34.0528 36.4991 33.8333 35.9692 33.8333 35.4167C33.8333 34.8641 34.0528 34.3342 34.4435 33.9435C34.8342 33.5528 35.3641 33.3333 35.9167 33.3333C36.4692 33.3333 36.9991 33.5528 37.3898 33.9435C37.7805 34.3342 38 34.8641 38 35.4167ZM38 27.0833C38 27.6359 37.7805 28.1658 37.3898 28.5565C36.9991 28.9472 36.4692 29.1667 35.9167 29.1667C35.3641 29.1667 34.8342 28.9472 34.4435 28.5565C34.0528 28.1658 33.8333 27.6359 33.8333 27.0833C33.8333 26.5308 34.0528 26.0009 34.4435 25.6102C34.8342 25.2195 35.3641 25 35.9167 25C36.4692 25 36.9991 25.2195 37.3898 25.6102C37.7805 26.0009 38 26.5308 38 27.0833ZM27.5833 35.4167C27.5833 35.9692 27.3638 36.4991 26.9731 36.8898C26.5824 37.2805 26.0525 37.5 25.5 37.5C24.9475 37.5 24.4176 37.2805 24.0269 36.8898C23.6362 36.4991 23.4167 35.9692 23.4167 35.4167C23.4167 34.8641 23.6362 34.3342 24.0269 33.9435C24.4176 33.5528 24.9475 33.3333 25.5 33.3333C26.0525 33.3333 26.5824 33.5528 26.9731 33.9435C27.3638 34.3342 27.5833 34.8641 27.5833 35.4167ZM27.5833 27.0833C27.5833 27.6359 27.3638 28.1658 26.9731 28.5565C26.5824 28.9472 26.0525 29.1667 25.5 29.1667C24.9475 29.1667 24.4176 28.9472 24.0269 28.5565C23.6362 28.1658 23.4167 27.6359 23.4167 27.0833C23.4167 26.5308 23.6362 26.0009 24.0269 25.6102C24.4176 25.2195 24.9475 25 25.5 25C26.0525 25 26.5824 25.2195 26.9731 25.6102C27.3638 26.0009 27.5833 26.5308 27.5833 27.0833ZM17.1667 35.4167C17.1667 35.9692 16.9472 36.4991 16.5565 36.8898C16.1658 37.2805 15.6359 37.5 15.0833 37.5C14.5308 37.5 14.0009 37.2805 13.6102 36.8898C13.2195 36.4991 13 35.9692 13 35.4167C13 34.8641 13.2195 34.3342 13.6102 33.9435C14.0009 33.5528 14.5308 33.3333 15.0833 33.3333C15.6359 33.3333 16.1658 33.5528 16.5565 33.9435C16.9472 34.3342 17.1667 34.8641 17.1667 35.4167ZM17.1667 27.0833C17.1667 27.6359 16.9472 28.1658 16.5565 28.5565C16.1658 28.9472 15.6359 29.1667 15.0833 29.1667C14.5308 29.1667 14.0009 28.9472 13.6102 28.5565C13.2195 28.1658 13 27.6359 13 27.0833C13 26.5308 13.2195 26.0009 13.6102 25.6102C14.0009 25.2195 14.5308 25 15.0833 25C15.6359 25 16.1658 25.2195 16.5565 25.6102C16.9472 26.0009 17.1667 26.5308 17.1667 27.0833Z" fill="#324A6D"/>
</svg>
