<svg width="22" height="23" viewBox="0 0 22 23" fill="none" xmlns="http://www.w3.org/2000/svg">
<path d="M21.9648 16.7766L20.8176 9.90156C20.7059 9.23984 20.1344 8.7543 19.4598 8.7543H8.94147V6.0043H13.0663C13.4444 6.0043 13.7538 5.69492 13.7538 5.3168V1.1875C13.7538 0.809375 13.4444 0.5 13.0663 0.5H2.06672C1.68861 0.5 1.37925 0.809375 1.37925 1.1875V5.3125C1.37925 5.69063 1.68861 6 2.06672 6H6.19157V8.75H2.54366C1.87337 8.75 1.29761 9.23555 1.18589 9.89727L0.0386704 16.7723C0.0128901 16.9227 0 17.073 0 17.2234V21.125C0 21.8855 0.61443 22.5 1.37495 22.5H20.6242C21.3848 22.5 21.9992 21.8855 21.9992 21.125V17.2277C22.0035 17.0773 21.9906 16.927 21.9648 16.7766ZM12.0351 11.1562C12.0351 10.7781 12.3445 10.4688 12.7226 10.4688H13.4101C13.7882 10.4688 14.0975 10.7781 14.0975 11.1562V11.8438C14.0975 12.2219 13.7882 12.5312 13.4101 12.5312H12.7226C12.3445 12.5312 12.0351 12.2219 12.0351 11.8438V11.1562ZM10.6602 13.9062H11.3476C11.7257 13.9062 12.0351 14.2156 12.0351 14.5938V15.2812C12.0351 15.6594 11.7257 15.9688 11.3476 15.9688H10.6602C10.282 15.9688 9.97268 15.6594 9.97268 15.2812V14.5938C9.97268 14.2156 10.282 13.9062 10.6602 13.9062ZM9.2852 10.4688C9.66331 10.4688 9.97268 10.7781 9.97268 11.1562V11.8438C9.97268 12.2219 9.66331 12.5312 9.2852 12.5312H8.59773C8.21962 12.5312 7.91025 12.2219 7.91025 11.8438V11.1562C7.91025 10.7781 8.21962 10.4688 8.59773 10.4688H9.2852ZM3.44167 3.9375V2.5625H11.6914V3.9375H3.44167ZM5.16036 12.5312H4.47288C4.09477 12.5312 3.78541 12.2219 3.78541 11.8438V11.1562C3.78541 10.7781 4.09477 10.4688 4.47288 10.4688H5.16036C5.53847 10.4688 5.84783 10.7781 5.84783 11.1562V11.8438C5.84783 12.2219 5.53847 12.5312 5.16036 12.5312ZM5.84783 15.2812V14.5938C5.84783 14.2156 6.15719 13.9062 6.53531 13.9062H7.22278C7.60089 13.9062 7.91025 14.2156 7.91025 14.5938V15.2812C7.91025 15.6594 7.60089 15.9688 7.22278 15.9688H6.53531C6.15719 15.9688 5.84783 15.6594 5.84783 15.2812ZM15.1287 20.0938C15.1287 20.2828 14.9741 20.4375 14.785 20.4375H7.22278C7.03372 20.4375 6.87904 20.2828 6.87904 20.0938V19.4062C6.87904 19.2172 7.03372 19.0625 7.22278 19.0625H14.785C14.9741 19.0625 15.1287 19.2172 15.1287 19.4062V20.0938ZM16.16 15.2812C16.16 15.6594 15.8506 15.9688 15.4725 15.9688H14.785C14.4069 15.9688 14.0975 15.6594 14.0975 15.2812V14.5938C14.0975 14.2156 14.4069 13.9062 14.785 13.9062H15.4725C15.8506 13.9062 16.16 14.2156 16.16 14.5938V15.2812ZM18.2224 11.8438C18.2224 12.2219 17.913 12.5312 17.5349 12.5312H16.8474C16.4693 12.5312 16.16 12.2219 16.16 11.8438V11.1562C16.16 10.7781 16.4693 10.4688 16.8474 10.4688H17.5349C17.913 10.4688 18.2224 10.7781 18.2224 11.1562V11.8438Z" fill="#0D203C"/>
</svg>
