<svg width="50" height="50" viewBox="0 0 50 50" fill="none" xmlns="http://www.w3.org/2000/svg">
<g clip-path="url(#clip0_18_615)">
<path d="M0 5C0 2.25 2.25 0 5 0H45C46.3261 0 47.5979 0.526784 48.5355 1.46447C49.4732 2.40215 50 3.67392 50 5V10H0V5ZM2.5 12.5H47.5V45C47.5 46.3261 46.9732 47.5979 46.0355 48.5355C45.0979 49.4732 43.8261 50 42.5 50H7.5C6.17392 50 4.90215 49.4732 3.96447 48.5355C3.02678 47.5979 2.5 46.3261 2.5 45V12.5ZM17.5 17.5V22.5H32.5V17.5H17.5Z" fill="#324A6D"/>
</g>
<defs>
<clipPath id="clip0_18_615">
<rect width="50" height="50" fill="white"/>
</clipPath>
</defs>
</svg>
