<svg width="23" height="23" viewBox="0 0 23 23" fill="none" xmlns="http://www.w3.org/2000/svg">
<g clip-path="url(#clip0_56_439)">
<path d="M0 2.3C0 1.035 1.035 0 2.3 0H20.7C21.31 0 21.895 0.242321 22.3263 0.673654C22.7577 1.10499 23 1.69 23 2.3V4.6H0V2.3ZM1.15 5.75H21.85V20.7C21.85 21.31 21.6077 21.895 21.1763 22.3263C20.745 22.7577 20.16 23 19.55 23H3.45C2.84 23 2.25499 22.7577 1.82365 22.3263C1.39232 21.895 1.15 21.31 1.15 20.7V5.75ZM8.05 8.05V10.35H14.95V8.05H8.05Z" fill="#0D203C"/>
</g>
<defs>
<clipPath id="clip0_56_439">
<rect width="23" height="23" fill="white"/>
</clipPath>
</defs>
</svg>
